<svg width="110" height="48" viewBox="0 0 110 48" fill="none" xmlns="http://www.w3.org/2000/svg">
<g clip-path="url(#clip0_5486_5858)">
<rect width="109" height="48" transform="translate(0.00195312)" fill="white"/>
<path d="M21.1194 26.2285C18.4441 26.2285 16.2312 28.1793 15.8252 30.7362V30.7418C15.8196 30.7418 15.8196 30.7418 15.8252 30.7474C15.7773 31.0153 15.7576 31.3 15.7576 31.5819C15.7576 31.8356 15.7773 32.0921 15.8196 32.3402C16.1776 34.9394 18.4187 36.9324 21.1222 36.9324C24.0794 36.9324 26.4784 34.5391 26.4784 31.5819C26.4756 28.6219 24.0766 26.2285 21.1194 26.2285Z" fill="#163663"/>
<path d="M19.6422 20.8723C22.6079 20.8723 24.9984 18.4733 24.9984 15.5218C24.9984 14.9692 24.9167 14.4449 24.7701 13.9487C24.5643 13.3004 24.2457 12.6999 23.8313 12.1756C22.8531 10.9493 21.3421 10.1543 19.6394 10.1543C18.633 10.1543 17.6886 10.4306 16.8824 10.9183C16.3101 11.2622 15.7999 11.7104 15.3939 12.2432C14.692 13.1453 14.2832 14.2842 14.2832 15.5189C14.286 18.4733 16.685 20.8723 19.6422 20.8723Z" fill="#163663"/>
<path d="M73.3452 5.65277C70.3288 11.0597 68.0792 15.4179 66.5935 18.719C65.1107 22.0258 63.9013 25.2423 62.9711 28.3715C62.0408 31.5006 61.3247 34.7735 60.8286 38.1902H52.4785C53.2792 33.3302 54.6971 28.4053 56.7269 23.4269C58.7566 18.4428 61.5615 13.0753 65.1389 7.31037H47.3535V0.911133H73.348V5.65277H73.3452Z" fill="#6EBBC5"/>
<path d="M108.202 38.193H99.0575L93.208 28.4927C92.0042 26.4883 91.0176 25.1944 90.248 24.6193C89.4784 24.0442 88.658 23.7511 87.7926 23.7511H85.3879V38.193H77.4438V0.911133H90.5129C99.3845 0.911133 103.822 4.28271 103.822 11.0231C103.822 13.5574 103.077 15.7309 101.595 17.5435C100.112 19.3562 98.0708 20.636 95.4688 21.3718V21.4676C97.1856 22.0427 99.0885 23.9371 101.172 27.148L108.202 38.193ZM85.3879 6.95235V17.6901H89.2867C91.15 17.6901 92.6441 17.1488 93.7746 16.0663C94.905 14.9838 95.4716 13.6307 95.4716 12.0125C95.4716 8.64096 93.4588 6.95517 89.4304 6.95517H85.3879V6.95235Z" fill="#163663"/>
<path d="M39.2544 0.00292969H11.8109L11.997 1.43783L12.823 7.74685C13.1754 7.43676 13.5475 7.1464 13.9393 6.89268C15.58 5.80453 17.5392 5.17588 19.6423 5.17588C23.0815 5.17588 26.1232 6.8504 27.9979 9.43546C28.4039 9.988 28.7619 10.5856 29.0466 11.2199C29.6471 12.5308 29.9853 13.9854 29.9853 15.5218C29.9853 18.4395 28.7731 21.0781 26.8195 22.9612C29.6132 24.8077 31.4597 27.9792 31.4597 31.5875C31.4597 37.2961 26.828 41.9222 21.1194 41.9222C15.8873 41.9222 11.5713 38.0347 10.8891 32.9801L10.8271 32.5122L10.8215 32.4699L6.58443 0.00292969H2.29102C1.02527 0.00292969 0.00195312 1.02906 0.00195312 2.292V43.4839C0.00195312 44.7497 1.02809 45.773 2.29102 45.773H13.3812C13.3248 45.2374 13.4009 44.6933 13.6123 44.1915C13.6179 44.1633 13.649 44.0956 13.68 44.0252C14.0803 43.2076 14.7484 42.6213 15.58 42.3337C15.9296 42.2182 16.2791 42.1618 16.6315 42.1618C17.9734 42.1618 19.163 42.9596 19.6676 44.1943C19.6902 44.2451 19.7155 44.3155 19.7409 44.3888C19.8932 44.8399 19.9411 45.3107 19.896 45.773H23.5805C23.5354 45.2543 23.6143 44.7299 23.8173 44.2422C23.8229 44.214 23.8539 44.1464 23.8849 44.0759C24.2852 43.2584 24.9533 42.672 25.785 42.3845C26.1345 42.2689 26.4841 42.2125 26.8365 42.2125C28.1783 42.2125 29.368 43.0103 29.8726 44.2451C29.8951 44.2958 29.9205 44.3663 29.9459 44.4396C30.0925 44.8737 30.1432 45.3248 30.1066 45.7702H39.2572C40.5229 45.7702 41.5463 44.744 41.5463 43.4811V2.292C41.5463 1.02906 40.5201 0.00292969 39.2544 0.00292969Z" fill="#163663"/>
<path d="M10.8237 32.5093L10.8857 32.9772C11.568 38.0318 15.8839 41.9192 21.1161 41.9192C26.8246 41.9192 31.4563 37.2932 31.4563 31.5846C31.4563 27.979 29.6099 24.8076 26.8162 22.9583C28.767 21.0752 29.982 18.4366 29.982 15.5189C29.982 13.9825 29.6437 12.5278 29.0432 11.217C28.7613 10.5827 28.4033 9.98225 27.9945 9.43253C26.1199 6.84747 23.0781 5.17295 19.6389 5.17295C17.5359 5.17295 15.5795 5.8016 13.936 6.88975C13.5441 7.14346 13.172 7.43383 12.8196 7.74392L11.9936 1.43489L11.8076 0H6.58105L10.8153 32.467L10.8237 32.5093ZM21.1189 36.9352C18.4154 36.9352 16.1743 34.9421 15.8163 32.3429C15.774 32.0949 15.7542 31.8383 15.7542 31.5846C15.7542 31.3027 15.774 31.018 15.8219 30.7502C15.8163 30.7445 15.8163 30.7445 15.8219 30.7445V30.7389C16.2278 28.182 18.4408 26.2312 21.1161 26.2312C24.0732 26.2312 26.4723 28.6246 26.4723 31.5874C26.4751 34.5446 24.0761 36.9352 21.1189 36.9352ZM15.3962 12.2459C15.8022 11.716 16.3124 11.2677 16.8847 10.921C17.6909 10.4305 18.6353 10.157 19.6417 10.157C21.3444 10.157 22.8554 10.9492 23.8336 12.1783C24.248 12.7026 24.5638 13.3031 24.7724 13.9515C24.9161 14.4476 25.0007 14.972 25.0007 15.5245C25.0007 18.476 22.6073 20.875 19.6445 20.875C16.6873 20.875 14.2883 18.476 14.2883 15.5245C14.2855 14.2869 14.6915 13.1509 15.3962 12.2459Z" fill="#6EBBC5"/>
<path d="M29.1088 44.7252C29.0947 44.6801 29.0806 44.6378 29.0637 44.5984C28.6944 43.6963 27.8036 43.0986 26.8395 43.0986C26.583 43.0986 26.3236 43.1409 26.0699 43.2227C25.4666 43.4313 24.9761 43.8598 24.6998 44.4264C24.6745 44.48 24.6604 44.511 24.6491 44.542C24.4799 44.9479 24.4236 45.3651 24.4715 45.7711C24.4912 45.9346 24.5251 46.0981 24.5786 46.256C24.7816 46.8621 25.2129 47.3526 25.7852 47.6373C26.3603 47.922 27.0058 47.9643 27.6091 47.7585H27.6119C28.2152 47.5555 28.7057 47.127 28.9904 46.552C29.1145 46.3039 29.1878 46.0389 29.2216 45.7711C29.2582 45.4272 29.2244 45.0691 29.1088 44.7252Z" fill="#6EBBC5"/>
<path d="M18.9033 44.6735C18.8893 44.6284 18.8752 44.5861 18.8582 44.5466C18.4889 43.6445 17.5981 43.0469 16.634 43.0469C16.3775 43.0469 16.1181 43.0892 15.8644 43.1709C15.2611 43.3795 14.7706 43.808 14.4943 44.3747C14.469 44.4282 14.4549 44.4592 14.4436 44.4902C14.266 44.9131 14.2124 45.35 14.2716 45.7701C14.2914 45.9167 14.3252 46.0605 14.3731 46.2042C14.5761 46.8103 15.0074 47.3008 15.5797 47.5856C16.1548 47.8703 16.8003 47.9126 17.4036 47.7068H17.4064C18.0097 47.5038 18.5002 47.0753 18.7849 46.5002C18.9005 46.2662 18.9738 46.021 19.0105 45.7729C19.0584 45.4092 19.0274 45.0343 18.9033 44.6735Z" fill="#6EBBC5"/>
<path d="M47.2203 43.6744C47.2356 43.3575 47.2466 42.884 47.2531 42.2539C47.2615 41.6238 47.2603 41.1494 47.2495 40.8306C47.4081 40.8344 47.5369 40.8362 47.6357 40.8362C47.7495 40.8362 47.8726 40.8344 48.0049 40.8306L47.9978 41.2808C48.0545 41.1932 48.1062 41.1224 48.1528 41.0683C48.2013 41.0124 48.2639 40.9611 48.3407 40.9145C48.4174 40.8679 48.5076 40.8316 48.6111 40.8055C48.7165 40.7775 48.8251 40.7635 48.937 40.7635C49.021 40.7635 49.1024 40.7719 49.1813 40.7887C49.2602 40.8036 49.3318 40.826 49.3962 40.8558C49.4625 40.8838 49.5186 40.9164 49.5646 40.9537C49.6125 40.991 49.6531 41.0329 49.6864 41.0795C49.7196 41.1242 49.7564 41.1914 49.7968 41.2808C49.8356 41.2156 49.8711 41.1615 49.9032 41.1187C49.9371 41.0739 49.9822 41.0282 50.0384 40.9816C50.0946 40.935 50.1577 40.8959 50.2275 40.8642C50.2973 40.8325 50.3757 40.8083 50.4628 40.7915C50.5517 40.7729 50.6437 40.7635 50.7388 40.7635C50.9011 40.7635 51.055 40.7906 51.2004 40.8446C51.3458 40.8968 51.4615 40.9807 51.5475 41.0963C51.6335 41.21 51.6793 41.3517 51.6851 41.5213C51.6881 41.6108 51.6861 41.7422 51.6789 41.9156C51.6717 42.0889 51.6655 42.3723 51.6603 42.7656C51.6549 43.1571 51.655 43.46 51.6604 43.6744C51.5241 43.6706 51.4037 43.6688 51.2993 43.6688C51.1762 43.6688 51.0317 43.6706 50.8658 43.6744C50.8744 43.4339 50.8817 43.1822 50.8877 42.9194L50.8995 42.2791C50.9033 42.1169 50.9033 41.9799 50.8995 41.868C50.895 41.7357 50.8702 41.6359 50.825 41.5688C50.7816 41.4999 50.7268 41.4514 50.6606 41.4234C50.5961 41.3936 50.5238 41.3787 50.4436 41.3787C50.3597 41.3787 50.2837 41.3945 50.2158 41.4262C50.1497 41.4579 50.0881 41.5092 50.0308 41.58C49.9754 41.6509 49.9334 41.7338 49.905 41.8289C49.8764 41.9221 49.8576 42.0544 49.8485 42.2259C49.8394 42.3956 49.8348 42.6193 49.835 42.897L49.8418 43.6744C49.6869 43.6706 49.5581 43.6688 49.4555 43.6688C49.353 43.6688 49.2159 43.6706 49.0445 43.6744C49.0526 43.5308 49.0613 43.2372 49.0705 42.7936C49.0796 42.3499 49.0816 42.0507 49.0763 41.896C49.0735 41.814 49.0646 41.745 49.0497 41.6891C49.0346 41.6313 49.0058 41.5772 48.963 41.5269C48.9221 41.4747 48.8741 41.4365 48.8192 41.4123C48.7643 41.388 48.7014 41.3759 48.6305 41.3759C48.5 41.3759 48.3867 41.4188 48.2908 41.5045C48.1948 41.5903 48.126 41.7049 48.0843 41.8485C48.0444 41.992 48.0212 42.2716 48.0149 42.6873C48.0103 43.1011 48.0122 43.4302 48.0205 43.6744C47.8487 43.6706 47.719 43.6688 47.6314 43.6688C47.5325 43.6688 47.3955 43.6706 47.2203 43.6744Z" fill="#2B4872"/>
<path d="M52.4746 41.4542C52.4961 41.32 52.5088 41.2258 52.5125 41.1718C52.5181 41.1177 52.5275 41.0357 52.5405 40.9257C52.7922 40.8661 53.0146 40.8241 53.2077 40.7999C53.4009 40.7757 53.5879 40.7635 53.7688 40.7635C53.974 40.7635 54.1632 40.7878 54.3365 40.8362C54.5096 40.8828 54.6465 40.9583 54.7471 41.0627C54.8476 41.1671 54.9012 41.3172 54.9079 41.5129C54.9115 41.6192 54.9058 41.8904 54.8908 42.3266C54.8757 42.7609 54.8733 43.2102 54.8835 43.6744C54.7416 43.6706 54.611 43.6688 54.4916 43.6688C54.3778 43.6688 54.2445 43.6706 54.0917 43.6744C54.1083 43.4488 54.119 43.1878 54.1238 42.8914L54.1365 42.1952C54.0672 42.2418 54.0142 42.2744 53.9775 42.293C53.9409 42.3117 53.8995 42.3294 53.8535 42.3462C53.8073 42.3611 53.7261 42.3853 53.6097 42.4189C53.4933 42.4506 53.4 42.4785 53.33 42.5028C53.2599 42.527 53.1965 42.555 53.1398 42.5866C53.0849 42.6165 53.0385 42.651 53.0006 42.6901C52.9627 42.7274 52.9352 42.7675 52.918 42.8103C52.9026 42.8513 52.8957 42.8961 52.8974 42.9446C52.9 43.0228 52.9247 43.0909 52.9715 43.1487C53.02 43.2046 53.0792 43.2437 53.1489 43.2661C53.2187 43.2885 53.3002 43.2997 53.3935 43.2997C53.4532 43.2997 53.5155 43.295 53.5805 43.2857C53.6473 43.2764 53.736 43.2531 53.8467 43.2158C53.8111 43.322 53.7708 43.4805 53.7257 43.6911C53.5941 43.7135 53.4892 43.7275 53.411 43.7331C53.3329 43.7387 53.2602 43.7415 53.1931 43.7415C52.9581 43.7415 52.7639 43.7098 52.6107 43.6464C52.4575 43.583 52.3421 43.4824 52.2647 43.3444C52.1891 43.2065 52.149 43.0676 52.1442 42.9278C52.1415 42.8476 52.1528 42.7684 52.1781 42.6901C52.2034 42.6118 52.242 42.54 52.2939 42.4748C52.3457 42.4096 52.4136 42.3471 52.4973 42.2875C52.581 42.2259 52.7031 42.1672 52.8634 42.1113C53.0237 42.0535 53.2363 41.9957 53.501 41.9379C53.5714 41.923 53.6445 41.9053 53.7202 41.8848C53.796 41.8624 53.8559 41.841 53.8999 41.8205C53.9459 41.8 53.9851 41.7739 54.0176 41.7422C54.05 41.7086 54.0731 41.6742 54.0868 41.6387C54.1024 41.6033 54.1095 41.567 54.1083 41.5297C54.1058 41.457 54.0794 41.3955 54.0292 41.3451C53.9809 41.2948 53.9182 41.2603 53.8411 41.2417C53.7658 41.2212 53.6824 41.2109 53.591 41.2109C53.2515 41.2109 52.8794 41.292 52.4746 41.4542Z" fill="#2B4872"/>
<path d="M55.5857 43.6744L55.6169 42.9474L55.6338 41.5521L55.624 40.3581C55.6203 40.1419 55.6165 39.975 55.6125 39.8576C55.8085 39.8613 55.9475 39.8632 56.0296 39.8632C56.1266 39.8632 56.2543 39.8613 56.4127 39.8576L56.3849 40.7663L56.367 42.2148L56.3758 43.2969L56.3859 43.6744C56.2198 43.6706 56.0891 43.6688 55.994 43.6688C55.8858 43.6688 55.7497 43.6706 55.5857 43.6744ZM56.4241 42.0833L56.9684 41.3899C57.0149 41.3302 57.0702 41.2566 57.1344 41.169C57.1986 41.0814 57.2796 40.9686 57.3775 40.8306C57.5716 40.8344 57.7134 40.8362 57.8029 40.8362C57.926 40.8362 58.0817 40.8344 58.27 40.8306L57.3855 41.8876L57.2272 42.0889C57.3708 42.3052 57.7664 42.8336 58.4143 43.6744C58.2463 43.6706 58.1026 43.6688 57.9832 43.6688C57.8639 43.6688 57.7156 43.6706 57.5386 43.6744C57.4244 43.4973 57.3309 43.3556 57.2583 43.2493C57.1875 43.1412 57.1218 43.0471 57.0613 42.9669L56.5625 42.2875C56.5488 42.2688 56.5027 42.2008 56.4241 42.0833Z" fill="#2B4872"/>
<path d="M61.2492 43.0396C61.2287 43.1496 61.2009 43.3472 61.1659 43.6324C60.9659 43.6753 60.7972 43.7042 60.6596 43.7191C60.5221 43.734 60.3834 43.7415 60.2435 43.7415C59.9992 43.7415 59.7792 43.7172 59.5836 43.6688C59.3898 43.6203 59.218 43.5318 59.0681 43.4031C58.9182 43.2726 58.8055 43.1133 58.7301 42.925C58.6547 42.7367 58.6135 42.5391 58.6064 42.3322C58.5986 42.1029 58.6312 41.8811 58.7041 41.6667C58.7769 41.4505 58.8829 41.2743 59.0219 41.1382C59.1626 41.0003 59.3244 40.9034 59.5072 40.8474C59.6899 40.7896 59.8819 40.7607 60.0834 40.7607C60.2736 40.7607 60.4554 40.785 60.6286 40.8334C60.8018 40.88 60.948 40.9574 61.0674 41.0655C61.1886 41.1736 61.2825 41.3041 61.3493 41.457C61.4178 41.608 61.4553 41.7767 61.4616 41.9631C61.4646 42.0507 61.4584 42.1411 61.4429 42.2343L59.3922 42.2371C59.3908 42.3061 59.3908 42.3611 59.3922 42.4021C59.3964 42.527 59.4218 42.6416 59.4682 42.746C59.5147 42.8504 59.5802 42.939 59.6647 43.0117C59.7493 43.0844 59.849 43.1384 59.964 43.1738C60.0789 43.2074 60.1914 43.2242 60.3015 43.2242C60.4302 43.2242 60.5686 43.2102 60.7169 43.1822C60.867 43.1543 61.0445 43.1067 61.2492 43.0396ZM59.4034 41.91L60.7129 41.9128C60.7099 41.8233 60.7048 41.7571 60.6977 41.7142C60.6907 41.6714 60.676 41.6229 60.6536 41.5688C60.6331 41.5129 60.6053 41.4644 60.5703 41.4234C60.5353 41.3806 60.4949 41.3451 60.4492 41.3172C60.4035 41.2892 60.3506 41.2678 60.2904 41.2529C60.232 41.238 60.1693 41.2305 60.1021 41.2305C60.0238 41.2305 59.9477 41.2426 59.874 41.2669C59.802 41.2911 59.7361 41.3265 59.6761 41.3731C59.6162 41.4197 59.5676 41.4719 59.5304 41.5297C59.495 41.5875 59.469 41.6434 59.4522 41.6975C59.4353 41.7497 59.419 41.8205 59.4034 41.91Z" fill="#2B4872"/>
<path d="M63.0688 44.9606C63.0257 44.681 62.9918 44.4797 62.9671 44.3566C63.149 44.4405 63.3193 44.4824 63.4778 44.4824C63.5263 44.4824 63.5755 44.4759 63.6254 44.4629C63.6754 44.4517 63.7215 44.4349 63.7636 44.4125C63.7911 44.3976 63.8183 44.3762 63.8453 44.3482C63.8742 44.3203 63.9126 44.269 63.9604 44.1944C64.0082 44.1199 64.0496 44.0462 64.0844 43.9735C64.1122 43.912 64.1403 43.8347 64.1688 43.7415L63.529 42.0386L63.0626 40.8306C63.2586 40.8344 63.3995 40.8362 63.4853 40.8362C63.5841 40.8362 63.7137 40.8344 63.874 40.8306C63.9184 40.9854 63.9593 41.1196 63.9968 41.2333L64.2924 42.1113C64.3837 42.3816 64.4494 42.5848 64.4894 42.7209C64.5149 42.8103 64.545 42.9287 64.5799 43.076C64.63 42.9063 64.6738 42.7684 64.7113 42.6621C64.7774 42.4683 64.8702 42.2092 64.9898 41.8848L65.2384 41.2165C65.2829 41.0972 65.3279 40.9686 65.3736 40.8306C65.5416 40.8344 65.6694 40.8362 65.7571 40.8362C65.8373 40.8362 65.9715 40.8344 66.1598 40.8306L65.1647 43.2437L64.7337 44.3091C64.6731 44.447 64.6143 44.5542 64.5572 44.6306C64.5109 44.6959 64.4597 44.7518 64.4034 44.7984C64.349 44.8432 64.2906 44.8804 64.2282 44.9103C64.1492 44.9475 64.0635 44.9774 63.971 44.9997C63.8655 45.0221 63.7586 45.0333 63.6504 45.0333C63.5889 45.0333 63.5029 45.0277 63.3925 45.0165C63.282 45.0053 63.1741 44.9867 63.0688 44.9606Z" fill="#2B4872"/>
<path d="M67.8949 40.7635C68.1094 40.7635 68.3157 40.7962 68.5138 40.8614C68.7136 40.9248 68.8838 41.0199 69.0243 41.1466C69.1665 41.2715 69.2753 41.4253 69.3505 41.608C69.4257 41.7888 69.4667 41.9799 69.4735 42.1812C69.4808 42.3937 69.4514 42.5988 69.3853 42.7964C69.3193 42.994 69.2198 43.1655 69.0867 43.3109C68.9536 43.4544 68.7847 43.5625 68.5801 43.6352C68.3774 43.706 68.1594 43.7415 67.9263 43.7415C67.7099 43.7415 67.5027 43.7098 67.3047 43.6464C67.1085 43.5812 66.9392 43.4842 66.7968 43.3556C66.6544 43.227 66.5437 43.0704 66.4647 42.8858C66.3875 42.7013 66.3455 42.5084 66.3387 42.307C66.3317 42.102 66.3577 41.9062 66.4166 41.7198C66.4756 41.5334 66.5716 41.3675 66.7047 41.2221C66.8396 41.0767 67.0139 40.9639 67.2275 40.8838C67.4412 40.8036 67.6636 40.7635 67.8949 40.7635ZM67.9145 41.3396C67.7522 41.3396 67.6081 41.3796 67.4821 41.4598C67.358 41.5381 67.2668 41.6555 67.2088 41.8121C67.1525 41.9687 67.1276 42.1393 67.1338 42.3238C67.1393 42.486 67.1694 42.6305 67.2241 42.7572C67.2807 42.884 67.3681 42.9865 67.4864 43.0648C67.6066 43.1431 67.7468 43.1822 67.9072 43.1822C68.0714 43.1822 68.2136 43.1422 68.334 43.062C68.4562 42.98 68.5454 42.8607 68.6016 42.7041C68.6596 42.5456 68.6854 42.3713 68.679 42.1812C68.6737 42.0265 68.6447 41.8857 68.5919 41.759C68.539 41.6322 68.4535 41.5306 68.3353 41.4542C68.2189 41.3778 68.0786 41.3396 67.9145 41.3396Z" fill="#2B4872"/>
<path d="M72.8929 43.6744C72.7286 43.6706 72.6026 43.6688 72.515 43.6688C72.4049 43.6688 72.28 43.6706 72.1403 43.6744L72.1301 43.2102C72.0805 43.2885 72.037 43.3519 71.9995 43.4003C71.9619 43.4469 71.9122 43.4935 71.8503 43.5401C71.7884 43.5849 71.7207 43.6212 71.647 43.6492C71.5733 43.6753 71.4882 43.6967 71.3918 43.7135C71.2973 43.7321 71.196 43.7415 71.0878 43.7415C70.8789 43.7415 70.696 43.7116 70.5392 43.652C70.3823 43.5905 70.256 43.4982 70.1604 43.3752C70.0667 43.2521 70.016 43.076 70.0082 42.8467L70.0062 42.788L70.0264 42.0666L70.036 41.1159C70.0353 41.0394 70.033 40.9444 70.0291 40.8306C70.2064 40.8344 70.3455 40.8362 70.4462 40.8362C70.5525 40.8362 70.6811 40.8344 70.8321 40.8306L70.7831 42.1057C70.7809 42.2045 70.7791 42.2884 70.7777 42.3574C70.7781 42.4245 70.7788 42.4729 70.7799 42.5028C70.7844 42.637 70.8078 42.7488 70.85 42.8383C70.894 42.9259 70.9663 42.993 71.0667 43.0396C71.169 43.0862 71.2771 43.1095 71.3908 43.1095C71.499 43.1095 71.6009 43.089 71.6965 43.048C71.7829 43.0107 71.8557 42.9585 71.915 42.8914C71.9761 42.8243 72.0262 42.7339 72.0652 42.6202C72.0942 42.5382 72.1145 42.4245 72.1264 42.2791C72.1359 42.1765 72.1421 42.0004 72.1448 41.7506C72.1494 41.4486 72.1492 41.142 72.1442 40.8306C72.329 40.8344 72.4699 40.8362 72.5669 40.8362C72.677 40.8362 72.8009 40.8344 72.9388 40.8306C72.9255 41.0972 72.9135 41.4309 72.9029 41.8317C72.8923 42.2306 72.8867 42.5605 72.8862 42.8215C72.8857 43.0806 72.8879 43.3649 72.8929 43.6744Z" fill="#2B4872"/>
<path d="M73.5839 43.6744L73.6199 42.3462L73.616 41.5744C73.6144 41.416 73.6108 41.2566 73.6053 41.0963C73.6044 41.0683 73.5995 40.9798 73.5907 40.8306C73.7643 40.8344 73.8921 40.8362 73.9742 40.8362C74.0693 40.8362 74.1952 40.8344 74.3517 40.8306L74.3511 41.2249C74.4186 41.1242 74.4767 41.0497 74.5254 41.0012C74.574 40.9509 74.6285 40.908 74.6889 40.8726C74.7511 40.8372 74.8201 40.8101 74.8959 40.7915C74.9718 40.7729 75.0498 40.7635 75.13 40.7635C75.2046 40.7635 75.2814 40.7729 75.3604 40.7915C75.3663 40.9649 75.3822 41.1848 75.408 41.4514C75.2969 41.4216 75.1967 41.4067 75.1071 41.4067C74.9989 41.4067 74.9035 41.4234 74.8207 41.457C74.7397 41.4887 74.6667 41.5381 74.6019 41.6052C74.5388 41.6704 74.4875 41.7515 74.4479 41.8485C74.4151 41.9267 74.3925 42.0283 74.3799 42.1532C74.3683 42.2502 74.3609 42.4161 74.3577 42.651C74.3563 42.8858 74.3595 43.117 74.3673 43.3444C74.3703 43.432 74.3768 43.542 74.3869 43.6744C74.245 43.6706 74.1153 43.6688 73.9978 43.6688C73.8822 43.6688 73.7442 43.6706 73.5839 43.6744Z" fill="#2B4872"/>
<path d="M77.1689 43.6212L77.0864 43.0061C77.2717 43.0806 77.4283 43.1328 77.5562 43.1627C77.684 43.1906 77.801 43.2046 77.9073 43.2046C78.0137 43.2046 78.1028 43.1925 78.1747 43.1682C78.2465 43.1422 78.2994 43.1049 78.3332 43.0564C78.3669 43.0061 78.3828 42.9539 78.381 42.8998C78.3802 42.8756 78.3766 42.8532 78.3703 42.8327C78.3659 42.8122 78.3568 42.7908 78.3429 42.7684C78.331 42.746 78.3163 42.7255 78.2989 42.7069C78.2833 42.6864 78.2611 42.664 78.2322 42.6398C78.2034 42.6137 78.1622 42.5811 78.1086 42.5419L77.9534 42.4217C77.8041 42.308 77.6901 42.2185 77.6114 42.1532C77.5327 42.088 77.4661 42.0218 77.4116 41.9547C77.357 41.8857 77.3145 41.814 77.2839 41.7394C77.2552 41.663 77.2395 41.5856 77.2369 41.5073C77.2322 41.3712 77.2689 41.2417 77.3468 41.1187C77.4265 40.9956 77.5447 40.9061 77.7013 40.8502C77.8579 40.7924 78.0435 40.7635 78.2579 40.7635C78.5023 40.7635 78.7849 40.7924 79.1058 40.8502L79.1621 41.4346C78.9427 41.347 78.7333 41.3032 78.5337 41.3032C78.4255 41.3032 78.3308 41.3144 78.2495 41.3368C78.17 41.3573 78.1133 41.3899 78.0793 41.4346C78.0454 41.4775 78.0293 41.526 78.0311 41.58C78.0322 41.6117 78.0389 41.6434 78.0511 41.6751C78.0634 41.7049 78.084 41.7366 78.1131 41.7702C78.1423 41.8037 78.175 41.8354 78.2115 41.8652C78.2498 41.8951 78.3283 41.9538 78.4469 42.0414C78.5655 42.129 78.6689 42.2082 78.7572 42.2791C78.8472 42.3499 78.9215 42.4217 78.9799 42.4944C79.0383 42.5652 79.0838 42.6416 79.1164 42.7237C79.149 42.8057 79.1668 42.8886 79.1696 42.9725C79.1744 43.1123 79.1359 43.2419 79.0542 43.3612C78.9724 43.4805 78.846 43.5737 78.6748 43.6408C78.5036 43.7079 78.3108 43.7415 78.0963 43.7415C77.9844 43.7415 77.8479 43.7321 77.6868 43.7135C77.5259 43.6967 77.3532 43.666 77.1689 43.6212Z" fill="#2B4872"/>
<path d="M79.8986 41.4542C79.9201 41.32 79.9328 41.2258 79.9365 41.1718C79.9421 41.1177 79.9515 41.0357 79.9645 40.9257C80.2162 40.8661 80.4386 40.8241 80.6317 40.7999C80.8249 40.7757 81.0119 40.7635 81.1928 40.7635C81.398 40.7635 81.5872 40.7878 81.7605 40.8362C81.9336 40.8828 82.0705 40.9583 82.1711 41.0627C82.2716 41.1671 82.3252 41.3172 82.3319 41.5129C82.3355 41.6192 82.3298 41.8904 82.3148 42.3266C82.2997 42.7609 82.2973 43.2102 82.3075 43.6744C82.1656 43.6706 82.035 43.6688 81.9156 43.6688C81.8018 43.6688 81.6685 43.6706 81.5157 43.6744C81.5323 43.4488 81.543 43.1878 81.5478 42.8914L81.5605 42.1952C81.4912 42.2418 81.4382 42.2744 81.4015 42.293C81.3649 42.3117 81.3235 42.3294 81.2775 42.3462C81.2313 42.3611 81.1501 42.3853 81.0337 42.4189C80.9173 42.4506 80.8241 42.4785 80.754 42.5028C80.6839 42.527 80.6205 42.555 80.5638 42.5866C80.5089 42.6165 80.4625 42.651 80.4246 42.6901C80.3867 42.7274 80.3592 42.7675 80.342 42.8103C80.3266 42.8513 80.3197 42.8961 80.3214 42.9446C80.324 43.0228 80.3487 43.0909 80.3955 43.1487C80.444 43.2046 80.5032 43.2437 80.5729 43.2661C80.6427 43.2885 80.7242 43.2997 80.8175 43.2997C80.8772 43.2997 80.9395 43.295 81.0045 43.2857C81.0713 43.2764 81.16 43.2531 81.2707 43.2158C81.2351 43.322 81.1948 43.4805 81.1497 43.6911C81.0181 43.7135 80.9132 43.7275 80.835 43.7331C80.7569 43.7387 80.6842 43.7415 80.6171 43.7415C80.3821 43.7415 80.1879 43.7098 80.0347 43.6464C79.8815 43.583 79.7661 43.4824 79.6887 43.3444C79.6131 43.2065 79.573 43.0676 79.5682 42.9278C79.5655 42.8476 79.5768 42.7684 79.6021 42.6901C79.6274 42.6118 79.666 42.54 79.7179 42.4748C79.7697 42.4096 79.8376 42.3471 79.9213 42.2875C80.005 42.2259 80.1271 42.1672 80.2874 42.1113C80.4477 42.0535 80.6603 41.9957 80.925 41.9379C80.9954 41.923 81.0685 41.9053 81.1442 41.8848C81.22 41.8624 81.2799 41.841 81.3239 41.8205C81.3699 41.8 81.4091 41.7739 81.4416 41.7422C81.474 41.7086 81.4971 41.6742 81.5108 41.6387C81.5264 41.6033 81.5335 41.567 81.5323 41.5297C81.5298 41.457 81.5034 41.3955 81.4532 41.3451C81.4049 41.2948 81.3422 41.2603 81.2651 41.2417C81.1898 41.2212 81.1064 41.2109 81.015 41.2109C80.6755 41.2109 80.3034 41.292 79.8986 41.4542Z" fill="#2B4872"/>
<path d="M83.0125 43.6744C83.0298 43.3593 83.0441 42.7936 83.0555 41.9771C83.0687 41.1587 83.0698 40.4522 83.0589 39.8576C83.253 39.8613 83.3911 39.8632 83.4732 39.8632C83.5832 39.8632 83.7175 39.8613 83.8759 39.8576L83.8435 40.8782L83.823 43.1543L83.8295 43.6744C83.6764 43.6706 83.5467 43.6688 83.4404 43.6688C83.4049 43.6688 83.2623 43.6706 83.0125 43.6744Z" fill="#2B4872"/>
<path d="M87.0505 43.0396C87.03 43.1496 87.0022 43.3472 86.9672 43.6324C86.7672 43.6753 86.5984 43.7042 86.4609 43.7191C86.3234 43.734 86.1847 43.7415 86.0448 43.7415C85.8005 43.7415 85.5805 43.7172 85.3848 43.6688C85.1911 43.6203 85.0193 43.5318 84.8694 43.4031C84.7195 43.2726 84.6068 43.1133 84.5314 42.925C84.456 42.7367 84.4148 42.5391 84.4077 42.3322C84.3999 42.1029 84.4325 41.8811 84.5054 41.6667C84.5782 41.4505 84.6841 41.2743 84.8231 41.1382C84.9639 41.0003 85.1257 40.9034 85.3085 40.8474C85.4911 40.7896 85.6832 40.7607 85.8846 40.7607C86.0749 40.7607 86.2566 40.785 86.4299 40.8334C86.6031 40.88 86.7493 40.9574 86.8686 41.0655C86.9898 41.1736 87.0838 41.3041 87.1506 41.457C87.2191 41.608 87.2566 41.7767 87.2629 41.9631C87.2659 42.0507 87.2596 42.1411 87.2441 42.2343L85.1935 42.2371C85.1921 42.3061 85.1921 42.3611 85.1935 42.4021C85.1977 42.527 85.2231 42.6416 85.2695 42.746C85.316 42.8504 85.3815 42.939 85.466 43.0117C85.5506 43.0844 85.6503 43.1384 85.7653 43.1738C85.8802 43.2074 85.9927 43.2242 86.1027 43.2242C86.2314 43.2242 86.3699 43.2102 86.5182 43.1822C86.6683 43.1543 86.8458 43.1067 87.0505 43.0396ZM85.2047 41.91L86.5142 41.9128C86.5111 41.8233 86.5061 41.7571 86.499 41.7142C86.492 41.6714 86.4773 41.6229 86.4549 41.5688C86.4344 41.5129 86.4066 41.4644 86.3716 41.4234C86.3366 41.3806 86.2962 41.3451 86.2505 41.3172C86.2048 41.2892 86.1518 41.2678 86.0916 41.2529C86.0333 41.238 85.9706 41.2305 85.9034 41.2305C85.8251 41.2305 85.749 41.2426 85.6752 41.2669C85.6033 41.2911 85.5374 41.3265 85.4774 41.3731C85.4175 41.4197 85.3689 41.4719 85.3317 41.5297C85.2963 41.5875 85.2702 41.6434 85.2534 41.6975C85.2366 41.7497 85.2203 41.8205 85.2047 41.91Z" fill="#2B4872"/>
<path d="M87.6662 43.6212L87.5838 43.0061C87.7691 43.0806 87.9257 43.1328 88.0535 43.1627C88.1813 43.1906 88.2984 43.2046 88.4047 43.2046C88.511 43.2046 88.6001 43.1925 88.672 43.1682C88.7439 43.1422 88.7967 43.1049 88.8305 43.0564C88.8642 43.0061 88.8802 42.9539 88.8783 42.8998C88.8775 42.8756 88.8739 42.8532 88.8676 42.8327C88.8632 42.8122 88.8541 42.7908 88.8403 42.7684C88.8283 42.746 88.8136 42.7255 88.7962 42.7069C88.7806 42.6864 88.7584 42.664 88.7296 42.6398C88.7007 42.6137 88.6595 42.5811 88.6059 42.5419L88.4508 42.4217C88.3014 42.308 88.1874 42.2185 88.1087 42.1532C88.03 42.088 87.9634 42.0218 87.9089 41.9547C87.8543 41.8857 87.8118 41.814 87.7813 41.7394C87.7526 41.663 87.7369 41.5856 87.7342 41.5073C87.7296 41.3712 87.7662 41.2417 87.8441 41.1187C87.9238 40.9956 88.042 40.9061 88.1987 40.8502C88.3552 40.7924 88.5408 40.7635 88.7553 40.7635C88.9996 40.7635 89.2822 40.7924 89.6032 40.8502L89.6594 41.4346C89.4401 41.347 89.2306 41.3032 89.031 41.3032C88.9229 41.3032 88.8281 41.3144 88.7468 41.3368C88.6673 41.3573 88.6106 41.3899 88.5767 41.4346C88.5427 41.4775 88.5266 41.526 88.5285 41.58C88.5295 41.6117 88.5362 41.6434 88.5485 41.6751C88.5607 41.7049 88.5813 41.7366 88.6105 41.7702C88.6396 41.8037 88.6724 41.8354 88.7088 41.8652C88.7471 41.8951 88.8256 41.9538 88.9442 42.0414C89.0629 42.129 89.1663 42.2082 89.2545 42.2791C89.3446 42.3499 89.4188 42.4217 89.4772 42.4944C89.5356 42.5652 89.5811 42.6416 89.6137 42.7237C89.6464 42.8057 89.6641 42.8886 89.667 42.9725C89.6717 43.1123 89.6332 43.2419 89.5515 43.3612C89.4698 43.4805 89.3433 43.5737 89.1721 43.6408C89.0009 43.7079 88.8081 43.7415 88.5936 43.7415C88.4817 43.7415 88.3452 43.7321 88.1842 43.7135C88.0232 43.6967 87.8505 43.666 87.6662 43.6212Z" fill="#2B4872"/>
<path d="M91.792 43.6744L91.8099 43.213L91.832 41.3955H91.485C91.4887 41.3396 91.4913 41.2491 91.4926 41.1242C91.4958 40.9975 91.4973 40.9052 91.4972 40.8474H91.8777L91.8739 40.7356C91.8671 40.5361 91.8703 40.3842 91.8836 40.2798C91.8967 40.1735 91.9245 40.0869 91.967 40.0198C92.0114 39.9527 92.0738 39.8949 92.1542 39.8464C92.2364 39.7961 92.3267 39.7625 92.4249 39.7457C92.5232 39.7271 92.6245 39.7178 92.7289 39.7178C92.9416 39.7178 93.1674 39.7476 93.4063 39.8073C93.419 40.016 93.4353 40.195 93.4553 40.3441C93.2741 40.2807 93.1098 40.249 92.9625 40.249C92.9046 40.249 92.8517 40.2565 92.8037 40.2714C92.7557 40.2845 92.7162 40.3031 92.6853 40.3273C92.6563 40.3516 92.6322 40.3833 92.613 40.4224C92.5938 40.4616 92.5814 40.5082 92.5758 40.5622C92.5701 40.6144 92.5685 40.675 92.5708 40.744L92.5743 40.8474H93.2878C93.281 40.9761 93.276 41.1587 93.2728 41.3955H92.6014C92.5912 42.1374 92.59 42.897 92.5978 43.6744C92.4279 43.6706 92.2926 43.6688 92.1919 43.6688C92.0893 43.6688 91.956 43.6706 91.792 43.6744Z" fill="#2B4872"/>
<path d="M93.6609 43.6744C93.6782 43.3593 93.6925 42.7936 93.7039 41.9771C93.7171 41.1587 93.7182 40.4522 93.7073 39.8576C93.9014 39.8613 94.0395 39.8632 94.1216 39.8632C94.2316 39.8632 94.3659 39.8613 94.5243 39.8576L94.4919 40.8782L94.4714 43.1543L94.4779 43.6744C94.3248 43.6706 94.1951 43.6688 94.0888 43.6688C94.0534 43.6688 93.9107 43.6706 93.6609 43.6744Z" fill="#2B4872"/>
<path d="M96.6115 40.7635C96.826 40.7635 97.0323 40.7962 97.2303 40.8614C97.4302 40.9248 97.6004 41.0199 97.7408 41.1466C97.8831 41.2715 97.9919 41.4253 98.0671 41.608C98.1423 41.7888 98.1833 41.9799 98.1901 42.1812C98.1973 42.3937 98.168 42.5988 98.1019 42.7964C98.0359 42.994 97.9364 43.1655 97.8033 43.3109C97.6701 43.4544 97.5013 43.5625 97.2967 43.6352C97.094 43.706 96.876 43.7415 96.6429 43.7415C96.4265 43.7415 96.2193 43.7098 96.0213 43.6464C95.8251 43.5812 95.6558 43.4842 95.5134 43.3556C95.371 43.227 95.2603 43.0704 95.1813 42.8858C95.1041 42.7013 95.0621 42.5084 95.0553 42.307C95.0483 42.102 95.0743 41.9062 95.1332 41.7198C95.1922 41.5334 95.2882 41.3675 95.4212 41.2221C95.5562 41.0767 95.7305 40.9639 95.9441 40.8838C96.1577 40.8036 96.3802 40.7635 96.6115 40.7635ZM96.6311 41.3396C96.4688 41.3396 96.3247 41.3796 96.1987 41.4598C96.0746 41.5381 95.9834 41.6555 95.9253 41.8121C95.8691 41.9687 95.8441 42.1393 95.8504 42.3238C95.8559 42.486 95.886 42.6305 95.9407 42.7572C95.9972 42.884 96.0847 42.9865 96.203 43.0648C96.3231 43.1431 96.4634 43.1822 96.6238 43.1822C96.788 43.1822 96.9302 43.1422 97.0506 43.062C97.1728 42.98 97.262 42.8607 97.3182 42.7041C97.3762 42.5456 97.402 42.3713 97.3955 42.1812C97.3903 42.0265 97.3612 41.8857 97.3084 41.759C97.2556 41.6322 97.1701 41.5306 97.0519 41.4542C96.9355 41.3778 96.7952 41.3396 96.6311 41.3396Z" fill="#2B4872"/>
<path d="M98.862 41.4542C98.8836 41.32 98.8962 41.2258 98.9 41.1718C98.9056 41.1177 98.9149 41.0357 98.928 40.9257C99.1796 40.8661 99.402 40.8241 99.5952 40.7999C99.7883 40.7757 99.9754 40.7635 100.156 40.7635C100.361 40.7635 100.551 40.7878 100.724 40.8362C100.897 40.8828 101.034 40.9583 101.135 41.0627C101.235 41.1671 101.289 41.3172 101.295 41.5129C101.299 41.6192 101.293 41.8904 101.278 42.3266C101.263 42.7609 101.261 43.2102 101.271 43.6744C101.129 43.6706 100.998 43.6688 100.879 43.6688C100.765 43.6688 100.632 43.6706 100.479 43.6744C100.496 43.4488 100.506 43.1878 100.511 42.8914L100.524 42.1952C100.455 42.2418 100.402 42.2744 100.365 42.293C100.328 42.3117 100.287 42.3294 100.241 42.3462C100.195 42.3611 100.114 42.3853 99.9972 42.4189C99.8808 42.4506 99.7875 42.4785 99.7175 42.5028C99.6474 42.527 99.584 42.555 99.5273 42.5866C99.4723 42.6165 99.4259 42.651 99.3881 42.6901C99.3502 42.7274 99.3227 42.7675 99.3055 42.8103C99.2901 42.8513 99.2832 42.8961 99.2848 42.9446C99.2875 43.0228 99.3122 43.0909 99.3589 43.1487C99.4075 43.2046 99.4666 43.2437 99.5364 43.2661C99.6062 43.2885 99.6877 43.2997 99.7809 43.2997C99.8406 43.2997 99.903 43.295 99.9679 43.2857C100.035 43.2764 100.123 43.2531 100.234 43.2158C100.199 43.322 100.158 43.4805 100.113 43.6911C99.9815 43.7135 99.8766 43.7275 99.7985 43.7331C99.7203 43.7387 99.6477 43.7415 99.5805 43.7415C99.3455 43.7415 99.1514 43.7098 98.9982 43.6464C98.8449 43.583 98.7296 43.4824 98.6522 43.3444C98.5766 43.2065 98.5364 43.0676 98.5317 42.9278C98.5289 42.8476 98.5402 42.7684 98.5656 42.6901C98.5909 42.6118 98.6295 42.54 98.6813 42.4748C98.7332 42.4096 98.801 42.3471 98.8848 42.2875C98.9685 42.2259 99.0905 42.1672 99.2509 42.1113C99.4112 42.0535 99.6237 41.9957 99.8885 41.9379C99.9589 41.923 100.032 41.9053 100.108 41.8848C100.183 41.8624 100.243 41.841 100.287 41.8205C100.333 41.8 100.373 41.7739 100.405 41.7422C100.437 41.7086 100.461 41.6742 100.474 41.6387C100.49 41.6033 100.497 41.567 100.496 41.5297C100.493 41.457 100.467 41.3955 100.417 41.3451C100.368 41.2948 100.306 41.2603 100.229 41.2417C100.153 41.2212 100.07 41.2109 99.9785 41.2109C99.639 41.2109 99.2669 41.292 98.862 41.4542Z" fill="#2B4872"/>
<path d="M103.699 43.09C103.68 43.1925 103.651 43.3826 103.612 43.6604C103.457 43.6958 103.334 43.7182 103.245 43.7275C103.156 43.7368 103.072 43.7415 102.994 43.7415C102.856 43.7415 102.731 43.7284 102.62 43.7023C102.511 43.6762 102.42 43.6305 102.347 43.5653C102.274 43.4982 102.223 43.4208 102.194 43.3332C102.166 43.2437 102.151 43.1515 102.148 43.0564C102.147 43.0322 102.147 42.9995 102.147 42.9585C102.148 42.9175 102.151 42.7852 102.156 42.5615L102.181 41.3983H101.778C101.784 41.2864 101.786 41.1065 101.785 40.8586H102.208C102.215 40.7505 102.22 40.5669 102.222 40.3078L102.55 40.2435C102.619 40.2304 102.751 40.1996 102.947 40.1512C102.943 40.4028 102.943 40.6386 102.949 40.8586H103.66C103.655 41.1103 103.655 41.2902 103.658 41.3983H102.945C102.932 42.157 102.927 42.596 102.931 42.7153C102.935 42.8308 102.95 42.9203 102.976 42.9837C103.005 43.0471 103.047 43.0928 103.104 43.1207C103.161 43.1487 103.221 43.1627 103.285 43.1627C103.331 43.1627 103.38 43.1589 103.43 43.1515C103.482 43.144 103.572 43.1235 103.699 43.09Z" fill="#2B4872"/>
</g>
<defs>
<clipPath id="clip0_5486_5858">
<rect width="109" height="48" fill="white" transform="translate(0.00195312)"/>
</clipPath>
</defs>
</svg>
