<svg width="39" height="39" viewBox="0 0 39 39" fill="none" xmlns="http://www.w3.org/2000/svg">
<g clip-path="url(#clip0_4277_20193)">
<path d="M19.2826 1.59393L2.88267 9.51099C2.67709 9.61022 2.54639 9.81848 2.54639 10.0468V29.5281C2.54639 29.7564 2.67709 29.9646 2.88267 30.0639L19.2826 37.9812C19.6094 38.1389 19.9903 38.1389 20.3172 37.9812L36.7171 30.0639C36.9227 29.9647 37.0534 29.7565 37.0534 29.5282V10.0468C37.0534 9.81855 36.9227 9.61037 36.7171 9.51106L20.3172 1.59393C19.9903 1.43614 19.6094 1.43614 19.2826 1.59393Z" fill="#6EBBC5"/>
<path d="M2.64532 9.7207C2.58275 9.81593 2.54639 9.928 2.54639 10.0464V29.5277C2.54639 29.7561 2.67709 29.9642 2.88267 30.0635L19.2826 37.9808C19.446 38.0596 19.6229 38.0991 19.7999 38.0991V18.0023L2.64532 9.7207Z" fill="#6EBBC5"/>
<path d="M36.9545 9.7207C37.017 9.81593 37.0534 9.928 37.0534 10.0464V29.5277C37.0534 29.7561 36.9227 29.9642 36.7171 30.0635L20.3172 37.9808C20.1538 38.0596 19.9769 38.0991 19.7999 38.0991V18.0023L36.9545 9.7207Z" fill="#6EBBC5"/>
<path d="M31.1411 12.5175L13.9263 4.20117L9.38843 6.40072L26.6418 14.7301L31.1411 12.5175Z" fill="#FFC000"/>
<path d="M26.6417 14.7301V21.1827C26.6417 21.402 26.871 21.5459 27.0686 21.4505L30.8047 19.6469C31.0104 19.5477 31.141 19.3394 31.141 19.1111V12.5176L26.6417 14.7301Z" fill="#6EBBC5"/>
<path d="M37.2954 9.17254L20.0419 0.843416C19.8889 0.769643 19.7108 0.769643 19.5579 0.843416L2.30436 9.17254C2.11198 9.26539 1.98975 9.46021 1.98975 9.67381V29.9021C1.98975 30.1157 2.11198 30.3105 2.30436 30.4033L19.5578 38.7326C19.6343 38.7695 19.7171 38.788 19.7999 38.788C19.8826 38.788 19.9654 38.7695 20.0419 38.7326L37.2954 30.4033C37.4878 30.3105 37.61 30.1157 37.61 29.9021V9.67389C37.61 9.46021 37.4877 9.26546 37.2954 9.17254ZM19.7999 1.96278L35.773 9.67389L31.1427 11.9092C31.1134 11.8869 31.0825 11.8662 31.0485 11.8498L15.1838 4.1912L19.7999 1.96278ZM13.9267 4.82058L29.8766 12.5205L26.6099 14.0975L10.6666 6.40069L13.9267 4.82058ZM27.1984 15.0496L30.2498 13.5765V19.4061L27.1984 20.8792V15.0496ZM20.3565 37.3446V18.3525L24.2065 16.4939C24.4833 16.3603 24.5994 16.0275 24.4657 15.7506C24.332 15.4739 23.9993 15.3576 23.7224 15.4914L19.7999 17.3851L18.2564 16.6399C17.9795 16.5061 17.6468 16.6223 17.5131 16.8992C17.3794 17.176 17.4955 17.5088 17.7724 17.6425L19.2432 18.3525V37.3445L3.10303 29.5527V10.5607L15.3937 16.4941C15.4717 16.5318 15.5541 16.5496 15.6352 16.5496C15.8422 16.5496 16.0409 16.4337 16.1369 16.2348C16.2705 15.958 16.1545 15.6252 15.8776 15.4915L3.82673 9.67381L9.3564 7.00431L26.0774 15.0766C26.0799 15.0801 26.0826 15.0831 26.0852 15.0864V21.7661C26.0852 21.9576 26.1836 22.1357 26.3459 22.2376C26.436 22.2941 26.5388 22.3227 26.6419 22.3227C26.7244 22.3227 26.8072 22.3044 26.8838 22.2673L31.0485 20.2568C31.2408 20.164 31.3631 19.9692 31.3631 19.7555V13.0391L36.4967 10.5608V29.5529L20.3565 37.3446Z" fill="black"/>
<path d="M7.69674 27.3931L5.16476 26.1708C4.88778 26.037 4.55513 26.1532 4.42146 26.43C4.2878 26.7069 4.40387 27.0397 4.68071 27.1733L7.21268 28.3957C7.29069 28.4334 7.37314 28.4512 7.45426 28.4512C7.66119 28.4512 7.85994 28.3352 7.95591 28.1364C8.08965 27.8595 7.97357 27.5268 7.69674 27.3931Z" fill="black"/>
<path d="M10.027 25.8767L5.16826 23.5311C4.89135 23.3974 4.55862 23.5135 4.42496 23.7904C4.29136 24.0672 4.40744 24.4 4.68428 24.5337L9.54301 26.8793C9.62101 26.9169 9.70347 26.9348 9.78459 26.9348C9.99151 26.9348 10.1903 26.8189 10.2862 26.6201C10.4199 26.3432 10.3038 26.0103 10.027 25.8767Z" fill="black"/>
</g>
<defs>
<clipPath id="clip0_4277_20193">
<rect width="38" height="38" fill="white" transform="translate(0.799927 0.787109)"/>
</clipPath>
</defs>
</svg>
