<svg width="39" height="39" viewBox="0 0 39 39" fill="none" xmlns="http://www.w3.org/2000/svg">
<g clip-path="url(#clip0_4283_16328)">
<path d="M21.8779 38.2314H5.99512C4.35555 38.2314 3.02637 36.9023 3.02637 35.2627V4.31348C3.02637 2.67391 4.35555 1.34473 5.99512 1.34473H21.8779C23.5175 1.34473 24.8467 2.67391 24.8467 4.31348V35.2627C24.8467 36.9023 23.5175 38.2314 21.8779 38.2314Z" fill="#163663"/>
<path d="M21.8779 1.34473H19.6514C21.2909 1.34473 22.6201 2.67391 22.6201 4.31348V35.2627C22.6201 36.9023 21.2909 38.2314 19.6514 38.2314H21.8779C23.5175 38.2314 24.8467 36.9023 24.8467 35.2627V4.31348C24.8467 2.67391 23.5175 1.34473 21.8779 1.34473Z" fill="#163663"/>
<path d="M22.917 4.31348V35.2627C22.917 35.8366 22.4518 36.3018 21.8779 36.3018H5.99512C5.42126 36.3018 4.95605 35.8366 4.95605 35.2627V4.31348C4.95605 3.73962 5.42126 3.27441 5.99512 3.27441H8.97159C9.14459 3.27441 9.29852 3.38426 9.35485 3.54784L9.74702 4.68732C9.80336 4.85089 9.95729 4.96074 10.1303 4.96074H17.7428C17.9158 4.96074 18.0697 4.85089 18.126 4.68732L18.5182 3.54784C18.5745 3.38426 18.7285 3.27441 18.9015 3.27441H21.8779C22.4518 3.27441 22.917 3.73962 22.917 4.31348Z" fill="#D6FAEC"/>
<path d="M21.8779 3.27441H19.6514C20.2252 3.27441 20.6904 3.73962 20.6904 4.31348V35.2627C20.6904 35.8366 20.2252 36.3018 19.6514 36.3018H21.8779C22.4518 36.3018 22.917 35.8366 22.917 35.2627V4.31348C22.917 3.73962 22.4518 3.27441 21.8779 3.27441Z" fill="#CCFAE8"/>
<path d="M16.8311 31.5137H11.042C10.1812 31.5137 9.4834 30.8159 9.4834 29.9551C9.4834 29.0943 10.1812 28.3965 11.042 28.3965H16.8311C17.6918 28.3965 18.3896 29.0943 18.3896 29.9551C18.3896 30.8159 17.6918 31.5137 16.8311 31.5137Z" fill="#1985A1"/>
<path d="M35.1163 24.5566H9.53023C9.00169 24.5566 8.57324 24.1282 8.57324 23.5997V8.70113C8.57324 8.17259 9.00169 7.74414 9.53023 7.74414H35.1163C35.6448 7.74414 36.0732 8.17258 36.0732 8.70113V23.5997C36.0732 24.1282 35.6448 24.5566 35.1163 24.5566Z" fill="#6EBBC5" stroke="#163663"/>
<path d="M35.1162 7.24414H32.8896C33.6943 7.24414 34.3466 7.89645 34.3466 8.70105V23.5997C34.3466 24.4043 33.6943 25.0566 32.8896 25.0566H35.1162C35.9209 25.0566 36.5732 24.4043 36.5732 23.5997V8.70105C36.5732 7.89645 35.9209 7.24414 35.1162 7.24414Z" fill="#1985A1"/>
<path d="M16.46 13.998H11.8584C11.6124 13.998 11.4131 13.7987 11.4131 13.5527V10.584C11.4131 10.338 11.6124 10.1387 11.8584 10.1387H16.46C16.7059 10.1387 16.9053 10.338 16.9053 10.584V13.5527C16.9053 13.7987 16.7059 13.998 16.46 13.998Z" fill="#FFC000"/>
<path d="M11.042 27.8389C8.23524 27.9554 8.23739 31.9539 11.042 32.0693H16.8311C19.6379 31.9528 19.6358 27.9544 16.8311 27.8389H11.042ZM17.8331 29.9541C17.8331 30.5066 17.3836 30.9561 16.8311 30.9561H11.042C9.71249 30.9009 9.71352 29.0068 11.042 28.9521H16.8311C17.3836 28.9521 17.8331 29.4016 17.8331 29.9541Z" fill="#163663"/>
<path d="M11.8584 9.58105C11.3059 9.58105 10.8564 10.0305 10.8564 10.583V13.5518C10.8564 14.1042 11.3059 14.5537 11.8584 14.5537H16.46C17.0124 14.5537 17.4619 14.1042 17.4619 13.5518V10.583C17.4619 10.0305 17.0124 9.58105 16.46 9.58105H11.8584ZM16.3486 13.4404H11.9697V10.6943H16.3486V13.4404Z" fill="#163663"/>
<path d="M21.1287 11.4803V12.3709C21.1542 13.108 22.2167 13.1074 22.2419 12.3709V11.4803C22.2165 10.7432 21.1539 10.7438 21.1287 11.4803Z" fill="#163663"/>
<path d="M30.8662 12.9276C31.1737 12.9276 31.4229 12.6784 31.4229 12.3709V11.4803C31.3973 10.7432 30.3348 10.7438 30.3096 11.4803V12.3709C30.3096 12.6784 30.5588 12.9276 30.8662 12.9276Z" fill="#163663"/>
<path d="M33.4072 12.3709V11.4803C33.3817 10.7432 32.3192 10.7438 32.2939 11.4803V12.3709C32.3194 13.108 33.382 13.1075 33.4072 12.3709Z" fill="#163663"/>
<path d="M25.123 12.3709V11.4803C25.0975 10.7432 24.035 10.7438 24.0098 11.4803V12.3709C24.0352 13.108 25.0978 13.1075 25.123 12.3709Z" fill="#163663"/>
<path d="M26.6694 12.9276C26.9769 12.9276 27.2261 12.6784 27.2261 12.3709V11.4803C27.2005 10.7432 26.138 10.7438 26.1128 11.4803V12.3709C26.1128 12.6784 26.3619 12.9276 26.6694 12.9276Z" fill="#163663"/>
</g>
<defs>
<clipPath id="clip0_4283_16328">
<rect width="38" height="38" fill="white" transform="translate(0.799805 0.787109)"/>
</clipPath>
</defs>
</svg>
