<svg width="64" height="64" viewBox="0 0 64 64" fill="none" xmlns="http://www.w3.org/2000/svg">
<circle opacity="0.1" cx="32" cy="32" r="32" fill="white"/>
<path d="M40.7818 33.6194V30.3677H38.3374C38.1601 29.6717 37.8711 29.0205 37.4908 28.4339L39.1786 26.7461L37.0646 24.6322L35.3356 26.3612C34.8069 26.0471 34.2304 25.8052 33.6193 25.6495V23.2051H30.6296V25.5915C29.9259 25.7416 29.2641 26.0048 28.6642 26.3612L26.9352 24.6322L24.8212 26.7461L26.509 28.4339C26.1287 29.0205 25.8397 29.6717 25.6624 30.3677H23.218V33.6194H25.6623C25.8396 34.3153 26.1286 34.9665 26.5089 35.5531L24.8211 37.2409L26.9351 39.3548L28.6641 37.6258C29.2641 37.9823 29.9258 38.2455 30.6295 38.3955V40.7819H33.6191V38.3375C34.2302 38.1818 34.8067 37.9399 35.3353 37.6258L37.0644 39.3548L39.1783 37.2409L37.4905 35.5531C37.8709 34.9665 38.1598 34.3153 38.3371 33.6194H40.7818ZM31.9998 34.2664C30.7446 34.2664 29.727 33.2488 29.727 31.9935C29.727 30.7382 30.7446 29.7206 31.9998 29.7206C33.2551 29.7206 34.2727 30.7382 34.2727 31.9935C34.2727 33.2488 33.2551 34.2664 31.9998 34.2664Z" fill="#E2DFE2"/>
<path d="M40.7817 33.612V30.3603H38.3373C38.297 30.2022 38.2502 30.0468 38.1987 29.8936C36.7037 33.586 33.0842 36.1909 28.8556 36.1909C27.9415 36.1909 27.0561 36.0685 26.2142 35.8404L24.821 37.2335L26.935 39.3475L28.6641 37.6184C29.264 37.9749 29.9257 38.2381 30.6294 38.3881V40.7746H33.619V38.3302C34.2301 38.1745 34.8066 37.9325 35.3352 37.6184L37.0643 39.3475L39.1782 37.2335L37.4904 35.5457C37.8708 34.9591 38.1597 34.3079 38.337 33.612H40.7817Z" fill="#D3CED5"/>
<path d="M49.3055 16.755C48.9625 15.7879 48.1951 15.0205 47.2281 14.6776V13.3457H44.9552V14.6776C43.9881 15.0206 43.2207 15.788 42.8777 16.7551H41.5459V19.0279H42.8778C43.2208 19.995 43.9882 20.7624 44.9553 21.1054V22.4373H47.2281V21.1054C48.1952 20.7624 48.9626 19.995 49.3056 19.0279H50.6374V16.755H49.3055ZM46.0917 19.0279C45.4641 19.0279 44.9553 18.5191 44.9553 17.8915C44.9553 17.2639 45.4641 16.7551 46.0917 16.7551C46.7193 16.7551 47.2281 17.2639 47.2281 17.8915C47.2281 18.5191 46.7193 19.0279 46.0917 19.0279Z" fill="#6EBBC5"/>
<path d="M49.3056 16.7671C49.2156 16.5134 49.0957 16.2739 48.9513 16.0518C48.7377 18.5323 46.6578 20.4795 44.1219 20.4795C44.0321 20.4795 43.9429 20.4766 43.8542 20.4718C44.1746 20.7512 44.5468 20.9725 44.9552 21.1174V22.4493H47.2281V21.1174C48.1952 20.7744 48.9626 20.007 49.3056 19.04H50.6375V16.7671H49.3056Z" fill="#53969E"/>
<path d="M21.1219 16.755C20.7789 15.7879 20.0115 15.0205 19.0445 14.6776V13.3457H16.7716V14.6776C15.8045 15.0206 15.0371 15.788 14.6942 16.7551H13.3623V19.0279H14.6942C15.0372 19.995 15.8046 20.7624 16.7717 21.1054V22.4373H19.0445V21.1054C20.0116 20.7624 20.779 19.995 21.122 19.0279H22.4539V16.755H21.1219ZM17.9081 19.0279C17.2805 19.0279 16.7717 18.5191 16.7717 17.8915C16.7717 17.2639 17.2805 16.7551 17.9081 16.7551C18.5357 16.7551 19.0445 17.2639 19.0445 17.8915C19.0445 18.5191 18.5357 19.0279 17.9081 19.0279Z" fill="#FF7169"/>
<path d="M21.122 16.7671C21.032 16.5134 20.9121 16.2739 20.7677 16.0518C20.5542 18.5323 18.4742 20.4795 15.9383 20.4795C15.8485 20.4795 15.7593 20.4766 15.6707 20.4718C15.991 20.7512 16.3632 20.9725 16.7717 21.1174V22.4493H19.0445V21.1174C20.0116 20.7744 20.779 20.007 21.122 19.04H22.4539V16.7671H21.122Z" fill="#FE5F55"/>
<path d="M49.3055 44.9455C48.9625 43.9784 48.1951 43.211 47.2281 42.8681V41.5361H44.9552V42.8681C43.9881 43.211 43.2207 43.9784 42.8777 44.9455H41.5459V47.2184H42.8778C43.2208 48.1854 43.9882 48.9528 44.9553 49.2958V50.6276H47.2281V49.2957C48.1952 48.9527 48.9626 48.1853 49.3056 47.2183H50.6374V44.9454H49.3055V44.9455ZM46.0917 47.2184C45.4641 47.2184 44.9553 46.7096 44.9553 46.082C44.9553 45.4544 45.4641 44.9456 46.0917 44.9456C46.7193 44.9456 47.2281 45.4544 47.2281 46.082C47.2281 46.7096 46.7193 47.2184 46.0917 47.2184Z" fill="#F4DD45"/>
<path d="M49.3056 44.9458C49.2156 44.6921 49.0957 44.4526 48.9513 44.2305C48.7377 46.711 46.6578 48.6582 44.1219 48.6582C44.0321 48.6582 43.9429 48.6553 43.8542 48.6505C44.1746 48.9299 44.5468 49.1512 44.9552 49.2961V50.628H47.2281V49.296C48.1952 48.9531 48.9626 48.1857 49.3056 47.2186H50.6375V44.9457H49.3056V44.9458Z" fill="#FFC000"/>
<path d="M21.1219 44.9455C20.7789 43.9784 20.0115 43.211 19.0445 42.8681V41.5361H16.7716V42.8681C15.8045 43.211 15.0371 43.9784 14.6942 44.9455H13.3623V47.2184H14.6942C15.0372 48.1854 15.8046 48.9528 16.7717 49.2958V50.6276H19.0445V49.2957C20.0116 48.9527 20.779 48.1853 21.122 47.2183H22.4539V44.9454H21.1219V44.9455ZM17.9081 47.2184C17.2805 47.2184 16.7717 46.7096 16.7717 46.082C16.7717 45.4544 17.2805 44.9456 17.9081 44.9456C18.5357 44.9456 19.0445 45.4544 19.0445 46.082C19.0445 46.7096 18.5357 47.2184 17.9081 47.2184Z" fill="#6EBBC5"/>
<path d="M21.122 44.9458C21.032 44.6921 20.9121 44.4526 20.7677 44.2305C20.5542 46.711 18.4742 48.6582 15.9383 48.6582C15.8485 48.6582 15.7593 48.6553 15.6707 48.6505C15.991 48.9299 16.3632 49.1512 16.7717 49.2961V50.628H19.0445V49.296C20.0116 48.9531 20.779 48.1857 21.122 47.2186H22.4539V44.9457H21.122V44.9458Z" fill="#1985A1"/>
<path d="M39.5762 36.8382L38.1997 35.4616C38.4292 35.0523 38.6167 34.6225 38.7604 34.1769H40.7818C41.0925 34.1769 41.3443 33.9251 41.3443 33.6144V30.3627C41.3443 30.052 41.0925 29.8002 40.7818 29.8002H38.7603C38.6166 29.3546 38.4291 28.9249 38.1996 28.5156L39.5762 27.139C39.7958 26.9193 39.7958 26.5632 39.5762 26.3436L37.4622 24.2295C37.3567 24.124 37.2137 24.0648 37.0644 24.0648C36.9152 24.0648 36.7722 24.124 36.6666 24.2295L35.2368 25.6594C34.8971 25.4851 34.5443 25.3387 34.1816 25.2217V23.2002C34.1816 22.8895 33.9299 22.6377 33.6191 22.6377H30.6296C30.3188 22.6377 30.0671 22.8895 30.0671 23.2002V25.1466C29.6163 25.2737 29.18 25.4452 28.7627 25.6594L27.3329 24.2295C27.2273 24.124 27.0843 24.0648 26.9351 24.0648C26.7858 24.0648 26.6429 24.124 26.5373 24.2295L24.4233 26.3436C24.2036 26.5633 24.2036 26.9194 24.4233 27.139L25.7999 28.5156C25.5704 28.9249 25.3829 29.3546 25.2392 29.8002H23.2178C22.907 29.8002 22.6553 30.052 22.6553 30.3627V33.6144C22.6553 33.9251 22.907 34.1769 23.2178 34.1769H25.2392C25.3829 34.6225 25.5704 35.0523 25.7999 35.4616L24.4233 36.8382C24.2036 37.0579 24.2036 37.414 24.4233 37.6336L26.5373 39.7476C26.7569 39.9671 27.1131 39.9673 27.3327 39.7476L28.7626 38.3178C29.1799 38.5319 29.6162 38.7034 30.067 38.8306V40.777C30.067 41.0877 30.3188 41.3395 30.6295 41.3395H33.6191C33.9298 41.3395 34.1816 41.0877 34.1816 40.777V38.7555C34.5442 38.6384 34.897 38.4921 35.2367 38.3178L36.6666 39.7476C36.8862 39.9672 37.2424 39.9672 37.4621 39.7476L39.576 37.6336C39.7958 37.414 39.7958 37.0579 39.5762 36.8382ZM37.0645 38.5543L35.7331 37.223C35.5512 37.0412 35.2691 37.0057 35.048 37.1372C34.5578 37.4285 34.0303 37.6473 33.4803 37.7875C33.2311 37.851 33.0567 38.0754 33.0567 38.3326V40.2145H31.1921V38.3905C31.1921 38.125 31.0064 37.8957 30.7468 37.8404C30.1136 37.7054 29.5095 37.4689 28.9514 37.1373C28.7303 37.0057 28.4482 37.0412 28.2664 37.2231L26.935 38.5544L25.6166 37.236L26.9066 35.9459C27.0942 35.7583 27.1252 35.4649 26.9807 35.2422C26.6273 34.6969 26.3669 34.1026 26.2073 33.4756C26.1437 33.2263 25.9193 33.052 25.6622 33.052H23.7803V30.9253H25.6623C25.9195 30.9253 26.1439 30.7509 26.2074 30.5017C26.3672 29.8747 26.6275 29.2804 26.9809 28.7351C27.1253 28.5124 27.0944 28.219 26.9067 28.0314L25.6167 26.7413L26.9351 25.4228L28.2665 26.7542C28.4483 26.936 28.7303 26.9714 28.9516 26.84C29.5096 26.5084 30.1136 26.2719 30.7469 26.1369C31.0066 26.0816 31.1922 25.8523 31.1922 25.5868V23.7628H33.0568V25.6447C33.0568 25.9019 33.2312 26.1263 33.4804 26.1898C34.0304 26.33 34.5578 26.5488 35.0481 26.8401C35.2691 26.9716 35.5512 26.9361 35.7332 26.7543L37.0646 25.4229L38.383 26.7414L37.093 28.0315C36.9053 28.2191 36.8744 28.5124 37.0188 28.7352C37.3723 29.2804 37.6325 29.8747 37.7923 30.5017C37.8558 30.751 38.0802 30.9253 38.3374 30.9253H40.2193V33.052H38.3373C38.0801 33.052 37.8557 33.2264 37.7922 33.4756C37.6325 34.1026 37.3721 34.697 37.0187 35.2423C36.8743 35.465 36.9053 35.7583 37.0929 35.946L38.3829 37.2361L37.0645 38.5543Z" fill="black"/>
<path d="M32 29.1553C31.8557 29.1553 31.7109 29.1662 31.5696 29.1878C31.2625 29.2347 31.0516 29.5216 31.0984 29.8288C31.1453 30.136 31.4325 30.3468 31.7394 30.2999C31.8247 30.2869 31.9124 30.2803 32.0001 30.2803C32.9432 30.2803 33.7105 31.0475 33.7105 31.9906C33.7105 32.9338 32.9432 33.701 32.0001 33.701C31.057 33.701 30.2897 32.9338 30.2897 31.9906C30.2897 31.9024 30.2964 31.8141 30.3097 31.7282C30.3568 31.4212 30.1462 31.134 29.8392 31.0867C29.5322 31.0393 29.245 31.2501 29.1977 31.5572C29.1758 31.6995 29.1648 31.8454 29.1648 31.9906C29.1648 33.554 30.4367 34.8259 32.0002 34.8259C33.5636 34.8259 34.8356 33.554 34.8356 31.9906C34.8356 30.4271 33.5635 29.1553 32 29.1553Z" fill="black"/>
<path d="M46.0917 16.209C45.155 16.209 44.3928 16.9711 44.3928 17.9079C44.3928 18.8446 45.155 19.6068 46.0917 19.6068C47.0285 19.6068 47.7906 18.8446 47.7906 17.9079C47.7906 16.9711 47.0285 16.209 46.0917 16.209ZM46.0917 18.4819C45.7752 18.4819 45.5178 18.2244 45.5178 17.908C45.5178 17.5915 45.7753 17.3341 46.0917 17.3341C46.4081 17.3341 46.6656 17.5915 46.6656 17.908C46.6656 18.2244 46.4081 18.4819 46.0917 18.4819Z" fill="black"/>
<path d="M50.6374 16.1974H49.6812C49.2881 15.3652 48.6228 14.6999 47.7906 14.3068V13.3506C47.7906 13.0399 47.5389 12.7881 47.2281 12.7881H44.9553C44.6445 12.7881 44.3928 13.0399 44.3928 13.3506V14.3067C43.5605 14.6999 42.8953 15.3651 42.5021 16.1974H41.5459C41.2352 16.1974 40.9834 16.4491 40.9834 16.7599V19.0327C40.9834 19.3435 41.2352 19.5952 41.5459 19.5952H42.502C42.8952 20.4275 43.5605 21.0928 44.3928 21.486V22.4421C44.3928 22.7528 44.6445 23.0046 44.9553 23.0046H47.2281C47.5389 23.0046 47.7906 22.7528 47.7906 22.4421V21.4859C48.6229 21.0927 49.2881 20.4275 49.6813 19.5952H50.6374C50.9481 19.5952 51.1999 19.3435 51.1999 19.0327V16.7599C51.1999 16.4491 50.9481 16.1974 50.6374 16.1974ZM50.0749 18.4702H49.3055C49.0673 18.4702 48.855 18.6202 48.7754 18.8447C48.4909 19.6468 47.8422 20.2956 47.0401 20.5801C46.8156 20.6597 46.6656 20.872 46.6656 21.1102V21.8796H45.5178V21.1102C45.5178 20.872 45.3678 20.6596 45.1433 20.5801C44.3412 20.2956 43.6924 19.6468 43.4079 18.8447C43.3283 18.6202 43.116 18.4702 42.8778 18.4702H42.1084V17.3224H42.8778C43.116 17.3224 43.3284 17.1724 43.4079 16.9479C43.6924 16.1458 44.3412 15.4971 45.1433 15.2126C45.3678 15.133 45.5178 14.9206 45.5178 14.6825V13.9131H46.6656V14.6825C46.6656 14.9207 46.8156 15.133 47.0401 15.2126C47.8422 15.4971 48.4909 16.1458 48.7754 16.9479C48.855 17.1724 49.0674 17.3224 49.3055 17.3224H50.0749V18.4702Z" fill="black"/>
<path d="M47.7906 46.0759C47.7906 45.1391 47.0285 44.377 46.0917 44.377C45.155 44.377 44.3928 45.1391 44.3928 46.0759C44.3928 47.0126 45.155 47.7748 46.0917 47.7748C47.0285 47.7748 47.7906 47.0126 47.7906 46.0759ZM45.5177 46.0759C45.5177 45.7594 45.7752 45.502 46.0917 45.502C46.4081 45.502 46.6656 45.7594 46.6656 46.0759C46.6656 46.3923 46.4081 46.6498 46.0917 46.6498C45.7752 46.6498 45.5177 46.3923 45.5177 46.0759Z" fill="black"/>
<path d="M50.6374 44.3898H49.6813C49.2881 43.5575 48.6229 42.8924 47.7906 42.4991V41.543C47.7906 41.2322 47.5389 40.9805 47.2281 40.9805H44.9553C44.6445 40.9805 44.3928 41.2322 44.3928 41.543V42.5432C44.2406 42.6992 44.187 42.9367 44.2755 43.151C44.3941 43.4381 44.723 43.5746 45.0102 43.4561C45.054 43.438 45.0982 43.421 45.1431 43.4051C45.3676 43.3255 45.5178 43.1131 45.5178 42.8749V42.1055H46.6656V42.8749C46.6656 43.1131 46.8156 43.3254 47.0401 43.405C47.8422 43.6895 48.4909 44.3382 48.7754 45.1403C48.855 45.3648 49.0674 45.5148 49.3055 45.5148H50.0749V46.6627H49.3055C49.0673 46.6627 48.855 46.8127 48.7754 47.0372C48.4909 47.8392 47.8422 48.488 47.0401 48.7725C46.8156 48.8521 46.6656 49.0644 46.6656 49.3026V50.072H45.5178V49.3026C45.5178 49.0644 45.3678 48.852 45.1433 48.7725C44.3412 48.488 43.6924 47.8393 43.4079 47.0372C43.3283 46.8127 43.116 46.6627 42.8778 46.6627H42.1084V45.5148H42.8778C43.1162 45.5148 43.3286 45.3647 43.4081 45.14C43.4248 45.0928 43.4428 45.0461 43.4619 45.0002C43.581 44.7132 43.445 44.384 43.158 44.2649C42.9402 44.1743 42.6975 44.2313 42.5413 44.3898H41.5459C41.2352 44.3898 40.9834 44.6416 40.9834 44.9523V47.2252C40.9834 47.5359 41.2352 47.7877 41.5459 47.7877H42.5021C42.8953 48.62 43.5605 49.2852 44.3928 49.6784V50.6345C44.3928 50.9452 44.6445 51.197 44.9553 51.197H47.2281C47.5389 51.197 47.7906 50.9452 47.7906 50.6345V49.6783C48.6228 49.2852 49.2881 48.6199 49.6812 47.7877H50.6374C50.9481 47.7877 51.1999 47.5359 51.1999 47.2252V44.9523C51.1999 44.6417 50.9481 44.3898 50.6374 44.3898Z" fill="black"/>
<path d="M19.6071 17.9079C19.6071 16.9711 18.845 16.209 17.9082 16.209C16.9715 16.209 16.2092 16.9711 16.2092 17.9079C16.2092 18.8446 16.9714 19.6068 17.9081 19.6068C18.8449 19.6068 19.6071 18.8447 19.6071 17.9079ZM17.3342 17.9079C17.3342 17.5914 17.5917 17.334 17.9081 17.334C18.2246 17.334 18.482 17.5915 18.482 17.9079C18.482 18.2243 18.2246 18.4818 17.9081 18.4818C17.5917 18.4818 17.3342 18.2244 17.3342 17.9079Z" fill="black"/>
<path d="M13.3623 19.5972H14.3184C14.7116 20.4295 15.3768 21.0946 16.2091 21.4879V22.444C16.2091 22.7548 16.4609 23.0065 16.7716 23.0065H19.0445C19.3552 23.0065 19.607 22.7548 19.607 22.444V21.4879C20.4392 21.0947 21.1045 20.4295 21.4977 19.5972H22.4538C22.7645 19.5972 23.0163 19.3454 23.0163 19.0347V16.7618C23.0163 16.4511 22.7645 16.1993 22.4538 16.1993H21.4976C21.1044 15.367 20.4392 14.7019 19.607 14.3086V13.3525C19.607 13.0418 19.3552 12.79 19.0445 12.79H16.7716C16.4609 12.79 16.2091 13.0418 16.2091 13.3525V14.3528C16.0569 14.5089 16.0034 14.7465 16.0919 14.9608C16.2107 15.2478 16.5396 15.3841 16.8268 15.2655C16.8704 15.2474 16.9148 15.2304 16.9596 15.2145C17.1841 15.1348 17.3341 14.9225 17.3341 14.6844V13.915H18.482V14.6845C18.482 14.9227 18.632 15.135 18.8564 15.2146C19.6585 15.499 20.3073 16.1478 20.5918 16.9498C20.6714 17.1743 20.8838 17.3243 21.1219 17.3243H21.8913V18.4722H21.1219C20.8837 18.4722 20.6714 18.6222 20.5918 18.8467C20.3073 19.6487 19.6585 20.2975 18.8564 20.582C18.632 20.6617 18.482 20.874 18.482 21.1121V21.8815H17.3341V21.1121C17.3341 20.8739 17.1841 20.6616 16.9596 20.582C16.1576 20.2975 15.5088 19.6487 15.2243 18.8467C15.1447 18.6222 14.9324 18.4722 14.6942 18.4722H13.9248V17.3243H14.6942C14.9324 17.3243 15.1448 17.1742 15.2244 16.9498C15.2411 16.9027 15.259 16.8562 15.2781 16.8103C15.3975 16.5235 15.2618 16.1942 14.9751 16.0747C14.7568 15.9838 14.5142 16.0407 14.3579 16.1993H13.3623C13.0516 16.1993 12.7998 16.4511 12.7998 16.7618V19.0347C12.7998 19.3453 13.0516 19.5972 13.3623 19.5972Z" fill="black"/>
<path d="M22.4538 44.3898H21.4977C21.1045 43.5575 20.4392 42.8923 19.607 42.4991V41.543C19.607 41.2322 19.3552 40.9805 19.0445 40.9805H16.7716C16.4609 40.9805 16.2091 41.2322 16.2091 41.543V42.4991C15.3768 42.8924 14.7116 43.5575 14.3184 44.3898H13.3623C13.0516 44.3898 12.7998 44.6416 12.7998 44.9523V47.2252C12.7998 47.5359 13.0516 47.7877 13.3623 47.7877H14.3185C14.7116 48.6199 15.3769 49.2852 16.2091 49.6783V50.6345C16.2091 50.9452 16.4609 51.197 16.7716 51.197H19.0445C19.3552 51.197 19.607 50.9452 19.607 50.6345V49.6784C20.4392 49.2852 21.1044 48.62 21.4976 47.7877H22.4538C22.7645 47.7877 23.0163 47.5359 23.0163 47.2252V44.9523C23.0163 44.6417 22.7645 44.3898 22.4538 44.3898ZM21.8913 46.6627H21.1219C20.8837 46.6627 20.6714 46.8127 20.5918 47.0372C20.3073 47.8392 19.6586 48.488 18.8564 48.7725C18.632 48.8521 18.482 49.0644 18.482 49.3026V50.072H17.3341V49.3026C17.3341 49.0644 17.1841 48.852 16.9596 48.7725C16.1576 48.488 15.5088 47.8392 15.2243 47.0372C15.1447 46.8127 14.9324 46.6627 14.6942 46.6627H13.9248V45.5148H14.6942C14.9324 45.5148 15.1448 45.3648 15.2243 45.1403C15.5088 44.3383 16.1575 43.6895 16.9596 43.405C17.1841 43.3253 17.3341 43.113 17.3341 42.8749V42.1055H18.482V42.8749C18.482 43.1131 18.632 43.3254 18.8564 43.405C19.6585 43.6895 20.3073 44.3382 20.5918 45.1403C20.6714 45.3648 20.8838 45.5148 21.1219 45.5148H21.8913V46.6627Z" fill="black"/>
<path d="M17.9081 44.375C16.9714 44.375 16.2092 45.1372 16.2092 46.0739C16.2092 47.0107 16.9714 47.7728 17.9081 47.7728C18.8449 47.7728 19.607 47.0107 19.607 46.0739C19.607 45.1372 18.845 44.375 17.9081 44.375ZM17.9081 46.6479C17.5916 46.6479 17.3342 46.3904 17.3342 46.074C17.3342 45.7575 17.5917 45.5001 17.9081 45.5001C18.2246 45.5001 18.482 45.7575 18.482 46.074C18.482 46.3904 18.2246 46.6479 17.9081 46.6479Z" fill="black"/>
<path d="M22.0941 21.2799C21.8743 21.0603 21.5182 21.0603 21.2985 21.2799C21.0789 21.4997 21.0789 21.8558 21.2985 22.0755L22.9142 23.6911H22.4539C22.1432 23.6911 21.8914 23.9429 21.8914 24.2536C21.8914 24.5643 22.1432 24.8161 22.4539 24.8161H24.2722C24.5784 24.8161 24.835 24.5595 24.8347 24.2532V22.4354C24.8347 22.1247 24.5829 21.8729 24.2722 21.8729C23.9615 21.8729 23.7097 22.1247 23.7097 22.4354V22.8957L22.0941 21.2799Z" fill="black"/>
<path d="M39.1678 24.3093C39.1958 24.5929 39.4426 24.8161 39.7275 24.8161H41.5458C41.8566 24.8161 42.1083 24.5643 42.1083 24.2536C42.1083 23.9429 41.8566 23.6911 41.5458 23.6911H41.0856L42.7012 22.0755C42.9209 21.8557 42.9209 21.4996 42.7012 21.2799C42.4815 21.0603 42.1254 21.0603 41.9057 21.2799L40.29 22.8956V22.4353C40.29 22.1246 40.0383 21.8728 39.7275 21.8728C39.4168 21.8728 39.165 22.1246 39.165 22.4353V24.2532C39.165 24.2719 39.1659 24.2907 39.1678 24.3093Z" fill="black"/>
<path d="M24.8318 39.5011C24.8039 39.217 24.5567 38.9941 24.272 38.9941H22.4537C22.143 38.9941 21.8912 39.2459 21.8912 39.5566C21.8912 39.8674 22.143 40.1191 22.4537 40.1191H22.914L21.2984 41.7347C21.0786 41.9545 21.0786 42.3106 21.2983 42.5302C21.4082 42.64 21.5521 42.6949 21.6961 42.6949C21.84 42.6949 21.984 42.64 22.0938 42.5302L23.7095 40.9146V41.3749C23.7095 41.6856 23.9613 41.9374 24.272 41.9374C24.5828 41.9374 24.8345 41.6856 24.8345 41.3749V39.5569C24.8345 39.5382 24.8336 39.5196 24.8318 39.5011Z" fill="black"/>
<path d="M41.9058 42.5302C42.0156 42.64 42.1596 42.6949 42.3035 42.6949C42.4474 42.6949 42.5914 42.64 42.7013 42.5302C42.921 42.3105 42.921 41.9544 42.7012 41.7347L41.0856 40.1191H41.5458C41.8566 40.1191 42.1083 39.8674 42.1083 39.5566C42.1083 39.2459 41.8566 38.9941 41.5458 38.9941H39.7275C39.4218 38.9941 39.1649 39.2503 39.165 39.5569V41.3749C39.165 41.6856 39.4168 41.9374 39.7275 41.9374C40.0383 41.9374 40.29 41.6856 40.29 41.3749V40.9146L41.9058 42.5302Z" fill="black"/>
</svg>
