<svg width="513" height="294" viewBox="0 0 513 294" fill="none" xmlns="http://www.w3.org/2000/svg">
<path d="M94.2173 150.374L121.655 203.702C122.773 205.851 121.827 208.447 119.505 209.501L34.3099 248.473C32.0305 249.527 29.2782 248.635 28.16 246.445L0.722114 193.117C-0.396044 190.968 0.55009 188.373 2.87242 187.318L88.0675 148.346C90.3468 147.292 93.0992 148.225 94.2173 150.374Z" fill="#FEFEFE"/>
<path d="M32.2686 249.118C30.4624 249.118 28.7421 248.185 27.925 246.563L0.487015 193.236C-0.0720659 192.141 -0.158078 190.924 0.271984 189.748C0.702046 188.572 1.56217 187.68 2.72334 187.153L87.9187 148.181C89.0798 147.654 90.37 147.573 91.6172 147.978C92.8214 148.384 93.8105 149.195 94.3696 150.29L121.808 203.617C122.969 205.888 121.98 208.605 119.571 209.7L34.3759 248.672C33.7308 248.997 32.9997 249.118 32.2686 249.118ZM90.026 148.1C89.3809 148.1 88.7358 148.221 88.0907 148.505L2.89536 187.477C1.82021 187.964 1.0461 188.815 0.659041 189.829C0.271985 190.884 0.357997 192.019 0.874072 192.992L28.312 246.32C29.3872 248.388 32.0106 249.24 34.2039 248.226L119.399 209.254C121.593 208.24 122.496 205.767 121.421 203.698L93.9825 150.371C93.4665 149.357 92.5633 148.627 91.4882 148.262C91.0151 148.181 90.5421 148.1 90.026 148.1Z" fill="#163663"/>
<path d="M97.6085 157.01L4.08826 199.794L9.40085 210.119L102.921 167.335L97.6085 157.01Z" fill="#CDCBCC"/>
<path d="M9.30349 210.341L3.79871 199.676L3.97073 199.595L97.6812 156.729L103.186 167.395L103.014 167.476L9.30349 210.341ZM4.40079 199.878L9.51853 209.814L102.627 167.192L97.5092 157.257L4.40079 199.878Z" fill="#163663"/>
<path d="M101.852 165.293L8.33203 208.077L14.4331 219.935L107.953 177.151L101.852 165.293Z" fill="#163663"/>
<path d="M16.5433 211.535C17.0594 212.508 18.3066 212.913 19.3387 212.467L38.1754 203.829C39.2076 203.343 39.6377 202.167 39.1646 201.193C38.6485 200.22 37.4013 199.815 36.3692 200.261L17.5325 208.899C16.4573 209.385 16.0273 210.561 16.5433 211.535Z" fill="#FEFEFE"/>
<path d="M18.4207 212.819C17.5606 212.819 16.7435 212.372 16.3564 211.602C15.7973 210.507 16.2704 209.209 17.4316 208.682L36.2682 200.044C37.4294 199.517 38.8056 199.963 39.3647 201.058C39.9237 202.153 39.4507 203.451 38.2895 203.978L19.4529 212.616C19.0658 212.778 18.7218 212.819 18.4207 212.819ZM37.2574 200.247C36.9563 200.247 36.6983 200.288 36.4402 200.409L17.6036 209.047C16.6575 209.493 16.2704 210.548 16.7435 211.399C17.2165 212.291 18.3347 212.656 19.2378 212.21L38.0745 203.572C39.0206 203.126 39.4077 202.072 38.9346 201.22C38.7196 200.815 38.3325 200.49 37.8594 200.328C37.6444 200.288 37.4724 200.247 37.2574 200.247Z" fill="#163663"/>
<path d="M46.9546 197.635C47.4707 198.609 48.7179 199.014 49.75 198.568L68.5867 189.93C69.6188 189.443 70.0489 188.267 69.5758 187.294C69.0598 186.321 67.8126 185.915 66.7804 186.361L47.9437 194.999C46.8686 195.486 46.4385 196.662 46.9546 197.635Z" fill="#FEFEFE"/>
<path d="M48.8264 198.902C47.9662 198.902 47.1491 198.456 46.7621 197.685C46.203 196.59 46.676 195.292 47.8372 194.765L66.6739 186.127C67.8351 185.6 69.2113 186.046 69.7704 187.141C70.0284 187.668 70.0714 188.236 69.8564 188.804C69.6413 189.372 69.2543 189.777 68.6952 190.061L49.8585 198.699C49.5145 198.861 49.1704 198.902 48.8264 198.902ZM47.1061 197.523C47.5792 198.415 48.6973 198.78 49.6005 198.334L68.4372 189.696C68.9102 189.493 69.2113 189.128 69.3833 188.682C69.5553 188.236 69.5123 187.749 69.2973 187.344C68.8242 186.452 67.7061 186.087 66.8029 186.533L47.9662 195.171C47.0631 195.576 46.676 196.631 47.1061 197.523Z" fill="#163663"/>
<path d="M80.4631 185.354C81.5101 184.875 81.9472 183.686 81.4394 182.698C80.9315 181.711 79.6711 181.299 78.6241 181.778C77.577 182.257 77.1399 183.446 77.6478 184.433C78.1556 185.421 79.4161 185.833 80.4631 185.354Z" fill="#FEFEFE"/>
<path d="M79.5742 185.728C78.714 185.728 77.8969 185.282 77.5099 184.511C76.9508 183.416 77.4238 182.118 78.585 181.591C79.7462 181.064 81.1224 181.51 81.6815 182.605C82.2406 183.7 81.7675 184.998 80.6063 185.525C80.2623 185.647 79.9182 185.728 79.5742 185.728ZM79.5742 181.753C79.2731 181.753 79.0151 181.794 78.757 181.916C77.8109 182.362 77.4238 183.416 77.8969 184.268C78.37 185.16 79.4882 185.525 80.3913 185.079C81.3374 184.633 81.7245 183.578 81.2514 182.727C81.0364 182.281 80.6493 181.997 80.1763 181.835C80.0042 181.794 79.7892 181.753 79.5742 181.753Z" fill="#163663"/>
<path d="M86.5228 182.579C87.5698 182.1 88.0069 180.911 87.4991 179.924C86.9913 178.936 85.7308 178.524 84.6838 179.003C83.6367 179.483 83.1997 180.672 83.7075 181.659C84.2153 182.647 85.4758 183.059 86.5228 182.579Z" fill="#FEFEFE"/>
<path d="M85.6407 182.958C84.7806 182.958 83.9634 182.512 83.5764 181.741C83.0173 180.646 83.4904 179.348 84.6515 178.821C85.2106 178.578 85.8127 178.537 86.4148 178.74C87.0169 178.943 87.4469 179.308 87.748 179.835C88.3071 180.93 87.834 182.228 86.6728 182.755C86.3288 182.877 85.9847 182.958 85.6407 182.958ZM85.6407 178.983C85.3396 178.983 85.0816 179.024 84.8236 179.146C83.8774 179.592 83.4904 180.646 83.9634 181.498C84.1785 181.903 84.5655 182.228 85.0386 182.39C85.5117 182.552 86.0277 182.512 86.4578 182.309C87.4039 181.863 87.791 180.808 87.3179 179.957C87.1029 179.551 86.7158 179.227 86.2428 179.065C86.0277 179.024 85.8127 178.983 85.6407 178.983Z" fill="#163663"/>
<path d="M92.5501 179.84C93.5971 179.361 94.0342 178.172 93.5263 177.184C93.0185 176.197 91.758 175.785 90.711 176.264C89.664 176.743 89.2269 177.932 89.7347 178.92C90.2426 179.907 91.503 180.319 92.5501 179.84Z" fill="#FEFEFE"/>
<path d="M91.6613 180.222C91.4033 180.222 91.1453 180.181 90.8872 180.1C90.2852 179.897 89.8551 179.532 89.5541 179.005C88.995 177.91 89.468 176.613 90.6292 176.085C91.7904 175.558 93.1666 176.004 93.7256 177.099C93.9837 177.626 94.0267 178.194 93.8117 178.762C93.5966 179.33 93.2096 179.735 92.6505 180.019C92.3495 180.141 92.0054 180.222 91.6613 180.222ZM91.6613 176.248C91.4033 176.248 91.1023 176.288 90.8442 176.41C89.8981 176.856 89.511 177.91 89.9841 178.762C90.1991 179.208 90.5862 179.492 91.0593 179.654C91.5323 179.816 92.0484 179.776 92.4785 179.573C92.9515 179.37 93.2526 179.005 93.4246 178.559C93.5966 178.113 93.5536 177.626 93.3386 177.221C93.0375 176.613 92.3494 176.248 91.6613 176.248Z" fill="#163663"/>
<path d="M98.5716 177.08C99.6186 176.601 100.056 175.412 99.5479 174.425C99.0401 173.437 97.7796 173.025 96.7326 173.504C95.6856 173.984 95.2485 175.173 95.7563 176.16C96.2641 177.148 97.5246 177.56 98.5716 177.08Z" fill="#FEFEFE"/>
<path d="M97.6836 177.457C96.8235 177.457 96.0064 177.011 95.6194 176.241C95.0603 175.146 95.5333 173.848 96.6945 173.321C97.8557 172.794 99.2319 173.24 99.7909 174.335C100.35 175.429 99.8769 176.727 98.7158 177.254C98.3717 177.376 98.0277 177.457 97.6836 177.457ZM97.6836 173.483C97.3826 173.483 97.1246 173.523 96.8665 173.645C95.9204 174.091 95.5333 175.146 96.0064 175.997C96.4795 176.889 97.5976 177.254 98.5008 176.808C99.4469 176.362 99.8339 175.308 99.3609 174.456C99.1458 174.01 98.7588 173.726 98.2857 173.564C98.1137 173.523 97.8987 173.483 97.6836 173.483Z" fill="#163663"/>
<path d="M91.1352 211.515C95.516 209.511 97.3443 204.537 95.2189 200.407C93.0935 196.276 87.8193 194.552 83.4386 196.556C79.0579 198.56 77.2295 203.533 79.3549 207.664C81.4803 211.795 86.7545 213.519 91.1352 211.515Z" fill="#FEFEFE"/>
<path d="M87.3145 212.528C86.3254 212.528 85.3362 212.366 84.3471 212.042C82.0678 211.312 80.2185 209.771 79.1864 207.703C78.1542 205.675 77.9822 203.363 78.7993 201.214C79.5734 199.065 81.2077 197.321 83.401 196.348C87.8736 194.32 93.2924 196.064 95.4427 200.281C96.4748 202.309 96.6468 204.621 95.8297 206.77C95.0556 208.919 93.4214 210.663 91.2281 211.636C90.0239 212.204 88.6907 212.528 87.3145 212.528ZM87.3145 195.902C86.0673 195.902 84.7772 196.145 83.573 196.713C81.5087 197.645 79.9605 199.308 79.2294 201.336C78.4983 203.363 78.6273 205.594 79.6164 207.54C80.6056 209.487 82.3688 210.947 84.5191 211.636C86.6694 212.326 89.0348 212.204 91.0991 211.271C93.1633 210.339 94.7116 208.676 95.4427 206.648C96.1738 204.621 96.0447 202.39 95.0556 200.444C93.5504 197.605 90.497 195.902 87.3145 195.902Z" fill="#163663"/>
<path d="M100.21 207.371C104.591 205.367 106.419 200.394 104.294 196.263C102.169 192.132 96.8944 190.408 92.5137 192.412C88.1329 194.416 86.3046 199.39 88.43 203.521C90.5554 207.651 95.8296 209.375 100.21 207.371Z" fill="#CDCBCC"/>
<path d="M96.3926 208.355C95.4035 208.355 94.4144 208.192 93.4252 207.868C91.1459 207.138 89.2966 205.597 88.2645 203.529C87.2323 201.501 87.0603 199.19 87.8774 197.04C88.6515 194.891 90.2858 193.188 92.4791 192.174C96.9517 190.146 102.37 191.89 104.521 196.107C105.553 198.135 105.725 200.447 104.908 202.596C104.134 204.745 102.499 206.489 100.306 207.462C99.059 208.071 97.7258 208.355 96.3926 208.355ZM96.3496 191.768C95.1024 191.768 93.8123 192.012 92.6081 192.579C90.5438 193.512 88.9956 195.175 88.2645 197.202C87.5334 199.23 87.6624 201.461 88.6515 203.407C89.6407 205.354 91.4039 206.814 93.5542 207.503C95.7045 208.192 98.0699 208.071 100.134 207.138C102.198 206.205 103.747 204.543 104.478 202.515C105.209 200.487 105.08 198.257 104.091 196.31C102.629 193.472 99.5751 191.768 96.3496 191.768Z" fill="#163663"/>
<path d="M32.5154 222.074C33.0314 223.047 34.2786 223.452 35.3108 223.006L65.458 209.218C66.4902 208.732 66.9203 207.555 66.4472 206.582C65.9311 205.609 64.6839 205.203 63.6518 205.649L33.5045 219.438C32.4724 219.924 32.0423 221.1 32.5154 222.074Z" fill="#FEFEFE"/>
<path d="M34.3786 223.393C34.1206 223.393 33.8626 223.352 33.6045 223.271C33.0024 223.068 32.5724 222.703 32.2713 222.176C31.7123 221.081 32.1853 219.784 33.3465 219.256L63.4938 205.468C64.6549 204.941 66.0311 205.387 66.5902 206.482C66.8483 207.009 66.8912 207.577 66.6762 208.145C66.4612 208.712 66.0741 209.118 65.5151 209.402L35.3678 223.19C35.0667 223.312 34.7227 223.393 34.3786 223.393ZM64.5689 205.63C64.2679 205.63 64.0098 205.671 63.7518 205.793L33.6045 219.581C32.6584 220.027 32.2713 221.081 32.7444 221.933C32.9594 222.338 33.3465 222.663 33.8196 222.825C34.2926 222.987 34.8087 222.947 35.2388 222.744L65.386 208.956C65.8591 208.753 66.1601 208.388 66.3322 207.942C66.5042 207.496 66.4612 207.009 66.2462 206.604C66.0311 206.158 65.6441 205.874 65.171 205.711C64.956 205.671 64.7409 205.63 64.5689 205.63Z" fill="#163663"/>
<path d="M35.4351 227.757C35.9511 228.73 37.1983 229.136 38.2305 228.69L68.3777 214.902C69.4099 214.415 69.8399 213.239 69.3669 212.266C68.8508 211.293 67.6036 210.887 66.5715 211.333L36.4242 225.121C35.392 225.608 34.962 226.784 35.4351 227.757Z" fill="#FEFEFE"/>
<path d="M37.2976 229.067C36.4375 229.067 35.6204 228.62 35.2333 227.85C34.9753 227.323 34.9323 226.755 35.1473 226.187C35.3624 225.619 35.7494 225.214 36.3085 224.93L66.4558 211.142C67.6169 210.615 68.9931 211.061 69.5522 212.156C70.1113 213.251 69.6382 214.548 68.4771 215.076L38.3298 228.864C37.9857 228.985 37.6417 229.067 37.2976 229.067ZM35.6204 227.647C36.0935 228.539 37.2116 228.904 38.1147 228.458L68.262 214.67C69.2082 214.224 69.5952 213.17 69.1221 212.318C68.6491 211.426 67.5309 211.061 66.6278 211.507L36.4805 225.295C36.0074 225.498 35.7064 225.863 35.5344 226.309C35.3624 226.755 35.4054 227.242 35.6204 227.647Z" fill="#163663"/>
<path d="M38.3956 233.474C38.9117 234.447 40.1589 234.853 41.191 234.407L71.3383 220.619C72.3705 220.132 72.8005 218.956 72.3274 217.983C71.8114 217.009 70.5642 216.604 69.532 217.05L39.3848 230.838C38.3096 231.284 37.8796 232.46 38.3956 233.474Z" fill="#FEFEFE"/>
<path d="M40.2257 234.762C39.3656 234.762 38.5485 234.316 38.1614 233.546C37.9034 233.019 37.8604 232.451 38.0754 231.883C38.2905 231.315 38.6775 230.91 39.2366 230.626L69.3839 216.838C69.9429 216.595 70.545 216.554 71.1471 216.757C71.7492 216.96 72.1792 217.325 72.4803 217.852C72.7383 218.379 72.7813 218.947 72.5663 219.514C72.3513 220.082 71.9642 220.488 71.4051 220.772L41.2579 234.56C40.9138 234.681 40.5698 234.762 40.2257 234.762ZM70.416 217C70.115 217 69.8569 217.041 69.5989 217.162L39.4516 230.95C38.5055 231.397 38.1184 232.451 38.5915 233.302C39.0646 234.195 40.1827 234.56 41.0858 234.114L71.2331 220.325C72.1792 219.879 72.5663 218.825 72.0932 217.973C71.8782 217.527 71.4911 217.243 71.0181 217.081C70.803 217.041 70.588 217 70.416 217Z" fill="#163663"/>
<path d="M272.361 23.796C272.361 23.796 271.768 23.5441 270.729 23.2642L270.908 22.7324C272.005 23.0403 272.599 23.2922 272.628 23.2922L272.361 23.796Z" fill="#163663"/>
<path d="M160.838 79.6392L160.749 79.0797C161.966 78.9398 163.152 78.7719 164.28 78.6041L164.369 79.1636C163.241 79.3314 162.055 79.4993 160.838 79.6392ZM167.899 78.5761L167.781 78.0166C168.967 77.7928 170.154 77.569 171.252 77.2892L171.4 77.8208C170.273 78.1005 169.116 78.3523 167.899 78.5761ZM174.871 76.9815L174.693 76.4499C175.85 76.1142 176.978 75.7785 178.075 75.3869L178.283 75.9184C177.185 76.3101 176.028 76.6458 174.871 76.9815ZM181.606 74.6315L181.369 74.128C182.437 73.6803 183.505 73.1768 184.543 72.6173L184.84 73.1208C183.772 73.6524 182.674 74.1839 181.606 74.6315ZM187.866 71.3584L187.539 70.8828C188.489 70.2953 189.438 69.6798 190.447 68.9525L190.803 69.4001C189.794 70.1275 188.815 70.7709 187.866 71.3584ZM193.592 67.3019L193.206 66.8823C194.126 66.099 194.956 65.3157 195.668 64.5044L196.113 64.868C195.401 65.6793 194.541 66.4906 193.592 67.3019ZM208.811 66.9382C208.485 66.9382 208.129 66.9382 207.773 66.9103L207.803 66.3507C209.019 66.4067 210.176 66.3507 211.333 66.2388L211.392 66.7983C210.562 66.9103 209.701 66.9382 208.811 66.9382ZM204.183 66.5745C203.026 66.4067 201.839 66.1829 200.653 65.8751L200.801 65.3436C201.988 65.6234 203.145 65.8752 204.272 66.043L204.183 66.5745ZM214.952 66.2109L214.804 65.6793C215.961 65.3996 217.059 65.0079 218.097 64.5603L218.335 65.0639C217.267 65.5115 216.11 65.9031 214.952 66.2109ZM197.241 64.896C196.588 64.6722 195.935 64.4484 195.253 64.1966C194.778 64.0287 194.333 63.8329 193.888 63.6091L194.155 63.1056C194.571 63.3014 195.016 63.4972 195.461 63.6651C196.113 63.9169 196.766 64.1407 197.419 64.3645L197.241 64.896ZM221.479 63.3294L221.123 62.8818C222.073 62.2383 222.963 61.511 223.793 60.7276L224.209 61.1193C223.378 61.9306 222.458 62.6579 221.479 63.3294ZM198.22 62.0705L197.715 61.7907C198.309 60.7836 198.754 59.7764 199.021 58.7413L199.585 58.8812C199.288 59.9723 198.813 61.0354 198.22 62.0705ZM190.922 61.6508C190.239 61.0633 189.586 60.3919 189.052 59.6925C188.874 59.4687 188.726 59.2449 188.578 59.0211L189.082 58.7413C189.23 58.9651 189.379 59.189 189.527 59.3848C190.061 60.0562 190.655 60.6996 191.307 61.2592L190.922 61.6508ZM226.493 58.4616L225.989 58.1539C226.642 57.2307 227.235 56.2515 227.68 55.2444L228.214 55.4682C227.769 56.5033 227.176 57.5104 226.493 58.4616ZM187.154 55.8599C186.916 54.9926 186.798 54.1534 186.798 53.3141C186.798 53.0064 186.827 52.6986 186.857 52.4189L187.45 52.4748C187.421 52.7546 187.391 53.0343 187.391 53.3141C187.391 54.0974 187.51 54.9087 187.717 55.72L187.154 55.8599ZM199.377 55.4962C199.318 54.4051 199.11 53.342 198.724 52.279L199.288 52.0832C199.703 53.1742 199.911 54.3212 199.97 55.4682L199.377 55.4962ZM229.519 52.3069L228.956 52.1111C229.401 51.0481 229.846 49.985 230.32 49.0058L230.854 49.2296C230.439 50.2088 229.964 51.2439 229.519 52.3069ZM188.518 49.4255L188.014 49.1177C188.578 48.2785 189.735 47.4672 191.011 47.0475L191.218 47.5791C190.061 47.9707 189.023 48.6981 188.518 49.4255ZM197.152 49.3695C196.766 48.8659 196.44 48.5302 196.262 48.3904C195.728 47.9707 195.134 47.635 194.511 47.4672L194.689 46.9356C195.401 47.1315 196.054 47.4951 196.647 47.9707C196.914 48.1665 197.27 48.5862 197.626 49.0338L197.152 49.3695ZM232.367 46.1523L231.833 45.9005C232.367 44.8654 232.901 43.8583 233.465 42.8792L233.999 43.1309C233.435 44.1381 232.901 45.1452 232.367 46.1523ZM235.75 40.2774L235.245 39.9977C235.868 39.0185 236.521 38.0673 237.203 37.1721L237.678 37.4798C237.025 38.3471 236.373 39.2983 235.75 40.2774ZM239.784 34.7662L239.31 34.4305C240.081 33.5353 240.852 32.668 241.653 31.8567L242.098 32.2484C241.327 33.0317 240.556 33.871 239.784 34.7662ZM244.62 29.8705L244.235 29.4508C245.125 28.6675 246.074 27.9681 247.023 27.2967L247.379 27.7443C246.43 28.4158 245.51 29.1151 244.62 29.8705ZM250.287 25.9259L249.99 25.4503C251.029 24.8628 252.126 24.3593 253.194 23.9117L253.432 24.4152C252.393 24.8628 251.325 25.3664 250.287 25.9259ZM256.784 23.3242L256.636 22.7926C257.793 22.4849 258.979 22.2611 260.166 22.0932L260.255 22.6527C259.068 22.7926 257.911 23.0164 256.784 23.3242ZM267.257 22.5968C266.129 22.4569 265.002 22.373 263.845 22.373H263.726V21.8135H263.845C265.002 21.8135 266.189 21.8974 267.316 22.0373L267.257 22.5968Z" fill="#163663"/>
<path d="M155.44 80.2218L155.38 79.6621C155.974 79.6061 156.567 79.5501 157.16 79.4941L157.22 80.0539C156.626 80.1099 156.033 80.1659 155.44 80.2218Z" fill="#163663"/>
<path d="M249.343 31.7952V18.6466L292.123 5.97363L249.343 31.7952Z" fill="#163663"/>
<path d="M249.19 32.0415V18.5292L249.309 18.5013L293.158 5.52051L249.19 32.0415ZM249.487 18.725V31.51L291.111 6.38775L249.487 18.725Z" fill="#163663"/>
<path d="M240.554 11.2694L249.603 18.7109L290.9 6.26172L240.554 11.2694Z" fill="#FEFEFE"/>
<path d="M249.576 18.8759L249.516 18.82L240.23 11.1546L292.327 5.95117L249.576 18.8759ZM240.913 11.3785L249.635 18.5682L289.479 6.53865L240.913 11.3785Z" fill="#163663"/>
<path d="M252.536 23.1092L249.332 31.8097L267.488 20.8152L264.106 18.1016L252.536 23.1092Z" fill="#FEFEFE"/>
<path d="M249.044 32.1351L252.397 22.9871L264.115 17.8955L267.705 20.805L249.044 32.1351ZM252.634 23.2109L249.578 31.4637L267.201 20.777L264.056 18.2312L252.634 23.2109Z" fill="#163663"/>
<path d="M265.592 38.3999L252.509 23.0972L291.789 6.25586L265.592 38.3999Z" fill="#FEFEFE"/>
<path d="M265.598 38.6272L265.479 38.4873L252.277 23.0446L252.455 22.9607L292.269 5.89551L265.598 38.6272ZM252.752 23.1565L265.598 38.1795L291.32 6.62287L252.752 23.1565Z" fill="#163663"/>
<path d="M416.213 12.5446C416.213 5.73159 410.322 0.175781 403.097 0.175781C395.872 0.175781 389.98 5.73159 389.98 12.5446C389.98 14.2478 390.324 15.8699 391.012 17.3298C391.227 17.7759 391.442 18.222 391.7 18.6276L402.968 39.9992L414.364 18.8303C414.665 18.3437 414.966 17.8165 415.181 17.2893C415.869 15.8699 416.213 14.2478 416.213 12.5446ZM403.226 17.776C400.344 17.776 398.022 15.586 398.022 12.869C398.022 10.1519 400.344 7.96201 403.226 7.96201C406.107 7.96201 408.429 10.1519 408.429 12.869C408.429 15.586 406.107 17.776 403.226 17.776Z" fill="#F27B79"/>
<path d="M402.945 40.5129L391.506 18.7763C391.248 18.3302 390.99 17.8841 390.818 17.438C390.13 15.8969 389.786 14.2343 389.786 12.5716C389.786 5.63693 395.763 0 403.118 0C410.472 0 416.449 5.63693 416.449 12.5716C416.449 14.2748 416.105 15.8969 415.417 17.438C415.202 17.9652 414.901 18.4924 414.6 18.979L402.945 40.5129ZM403.075 0.364991C395.979 0.364991 390.173 5.83971 390.173 12.531C390.173 14.1532 390.517 15.7753 391.162 17.2758C391.334 17.7218 391.592 18.1274 391.85 18.5735L402.945 39.6207L414.17 18.8168C414.471 18.3302 414.772 17.8029 414.987 17.3163C415.675 15.8158 415.976 14.2343 415.976 12.5716C415.976 5.8397 410.171 0.364991 403.075 0.364991ZM403.204 17.9652C400.193 17.9652 397.785 15.6536 397.785 12.8554C397.785 10.0572 400.236 7.7457 403.204 7.7457C406.171 7.7457 408.622 10.0572 408.622 12.8554C408.622 15.6536 406.214 17.9652 403.204 17.9652ZM403.204 8.11069C400.451 8.11069 398.215 10.2195 398.215 12.8149C398.215 15.4103 400.451 17.5191 403.204 17.5191C405.956 17.5191 408.192 15.4103 408.192 12.8149C408.192 10.2195 405.956 8.11069 403.204 8.11069Z" fill="#163663"/>
<path d="M142.106 293.595H444.224C447.621 293.595 450.373 290.999 450.373 287.795V109.442C450.373 106.238 447.621 103.643 444.224 103.643H142.106C138.708 103.643 135.956 106.238 135.956 109.442V287.795C135.956 290.999 138.708 293.595 142.106 293.595Z" fill="#163663"/>
<path d="M428.167 109.267H143.767V284.214H428.167V109.267Z" fill="#F9F9F9"/>
<path d="M428.356 284.392H143.526V109.039H428.356V284.392ZM143.956 283.987H427.926V109.445H143.956V283.987Z" fill="#163663"/>
<path d="M440.468 192.675C444.339 192.675 447.478 189.716 447.478 186.065C447.478 182.415 444.339 179.455 440.468 179.455C436.596 179.455 433.458 182.415 433.458 186.065C433.458 189.716 436.596 192.675 440.468 192.675Z" fill="#FEFEFE"/>
<path d="M440.45 192.824C436.493 192.824 433.225 189.783 433.225 186.011C433.225 182.28 436.45 179.198 440.45 179.198C444.449 179.198 447.675 182.24 447.675 186.011C447.675 189.783 444.406 192.824 440.45 192.824ZM440.45 179.644C436.708 179.644 433.655 182.524 433.655 186.052C433.655 189.58 436.708 192.459 440.45 192.459C444.191 192.459 447.245 189.58 447.245 186.052C447.245 182.524 444.191 179.644 440.45 179.644Z" fill="black"/>
<path d="M123.294 112.545C123.251 125.157 112.37 135.377 98.9952 135.377C85.6203 135.377 74.7398 125.157 74.6968 112.545H123.294Z" fill="#F3EDF0"/>
<path d="M98.9682 135.559C85.5073 135.559 74.4977 125.218 74.4547 112.525V112.322H123.525V112.525C123.439 125.218 112.429 135.559 98.9682 135.559ZM74.8418 112.728C75.0138 125.097 85.7653 135.154 98.9252 135.154C112.085 135.154 122.837 125.097 123.009 112.728H74.8418Z" fill="#163663"/>
<path d="M171.935 112.545C171.892 125.157 161.011 135.377 147.636 135.377C134.261 135.377 123.381 125.157 123.338 112.545H171.935Z" fill="#F3EDF0"/>
<path d="M147.567 135.559C134.106 135.559 123.097 125.218 123.054 112.525V112.322H172.124V112.525C172.038 125.218 161.071 135.559 147.567 135.559ZM123.484 112.728C123.656 125.097 134.407 135.154 147.567 135.154C160.727 135.154 171.479 125.097 171.651 112.728H123.484Z" fill="#163663"/>
<path d="M220.533 112.545C220.49 125.157 209.61 135.377 196.235 135.377C182.86 135.377 171.98 125.157 171.937 112.545H220.533Z" fill="#F3EDF0"/>
<path d="M196.208 135.559C182.747 135.559 171.738 125.218 171.695 112.525V112.322H220.765V112.525C220.679 125.218 209.669 135.559 196.208 135.559ZM172.125 112.728C172.297 125.097 183.048 135.154 196.208 135.154C209.368 135.154 220.12 125.097 220.292 112.728H172.125Z" fill="#163663"/>
<path d="M269.173 112.545C269.13 125.157 258.249 135.377 244.874 135.377C231.499 135.377 220.619 125.157 220.576 112.545H269.173Z" fill="#F3EDF0"/>
<path d="M244.847 135.559C231.386 135.559 220.377 125.218 220.334 112.525V112.322H269.404V112.525C269.318 125.218 258.308 135.559 244.847 135.559ZM220.764 112.728C220.936 125.097 231.687 135.154 244.847 135.154C258.007 135.154 268.759 125.097 268.931 112.728H220.764Z" fill="#163663"/>
<path d="M317.815 112.545C317.772 125.157 306.891 135.377 293.516 135.377C280.142 135.377 269.261 125.157 269.218 112.545H317.815Z" fill="#F3EDF0"/>
<path d="M293.489 135.559C280.028 135.559 269.019 125.218 268.976 112.525V112.322H318.046V112.525C317.96 125.218 306.95 135.559 293.489 135.559ZM269.363 112.728C269.535 125.097 280.286 135.154 293.446 135.154C306.606 135.154 317.358 125.097 317.53 112.728H269.363Z" fill="#163663"/>
<path d="M74.7595 112.614L139.312 77.6973H171.781L123.356 112.614H74.7595Z" fill="#FEFEFE"/>
<path d="M123.441 112.82H73.9409L139.267 77.498H172.425L123.441 112.82ZM75.5321 112.415H123.269L171.135 77.9036H139.353L75.5321 112.415Z" fill="#163663"/>
<path d="M207.217 77.6953L171.78 112.409H123.183L171.78 77.6953H207.217Z" fill="#FFC000"/>
<path d="M171.91 112.607H122.539L171.738 77.4873H207.734L171.91 112.607ZM123.829 112.201H171.738L206.745 77.8928H171.867L123.829 112.201Z" fill="#163663"/>
<path d="M220.419 112.409L242.482 77.6953H207.216L171.779 112.409H220.419Z" fill="#FEFEFE"/>
<path d="M220.549 112.607H171.307L207.174 77.4873H242.87L220.549 112.607ZM172.296 112.201H220.291L242.096 77.8928H207.303L172.296 112.201Z" fill="#163663"/>
<path d="M269.146 112.53L275.855 77.6133H242.181L220.506 112.53H269.146Z" fill="#FFC000"/>
<path d="M269.32 112.726H220.164L242.054 77.4043H276.115L269.32 112.726ZM220.895 112.321H268.976L275.599 77.8098H242.312L220.895 112.321Z" fill="#163663"/>
<path d="M463.691 112.545C463.734 125.157 474.614 135.377 487.989 135.377C501.364 135.377 512.245 125.157 512.288 112.545H463.691Z" fill="#F3EDF0"/>
<path d="M488.01 135.559C474.549 135.559 463.54 125.218 463.497 112.525V112.322H512.524V112.525C512.481 125.218 501.471 135.559 488.01 135.559ZM463.884 112.728C464.056 125.097 474.807 135.154 487.967 135.154C501.127 135.154 511.879 125.097 512.051 112.728H463.884Z" fill="#163663"/>
<path d="M415.051 112.545C415.094 125.157 425.975 135.377 439.35 135.377C452.725 135.377 463.605 125.157 463.648 112.545H415.051Z" fill="#F3EDF0"/>
<path d="M439.371 135.559C425.91 135.559 414.901 125.218 414.858 112.525V112.322H463.928V112.525C463.842 125.218 452.832 135.559 439.371 135.559ZM415.288 112.728C415.46 125.097 426.211 135.154 439.371 135.154C452.531 135.154 463.283 125.097 463.455 112.728H415.288Z" fill="#163663"/>
<path d="M366.451 112.545C366.494 125.157 377.374 135.377 390.749 135.377C404.124 135.377 415.005 125.157 415.048 112.545H366.451Z" fill="#F3EDF0"/>
<path d="M390.722 135.559C377.261 135.559 366.251 125.218 366.208 112.525V112.322H415.278V112.525C415.192 125.218 404.182 135.559 390.722 135.559ZM366.638 112.728C366.81 125.097 377.562 135.154 390.722 135.154C403.881 135.154 414.633 125.097 414.805 112.728H366.638Z" fill="#163663"/>
<path d="M317.813 112.545C317.856 125.157 328.736 135.377 342.111 135.377C355.486 135.377 366.367 125.157 366.41 112.545H317.813Z" fill="#F3EDF0"/>
<path d="M342.084 135.559C328.624 135.559 317.614 125.218 317.571 112.525V112.322H366.641V112.525C366.555 125.218 355.588 135.559 342.084 135.559ZM318.001 112.728C318.173 125.097 328.925 135.154 342.084 135.154C355.244 135.154 365.996 125.097 366.168 112.728H318.001Z" fill="#163663"/>
<path d="M512.219 112.612L447.624 77.6953H415.154L463.579 112.612H512.219Z" fill="#FEFEFE"/>
<path d="M513 112.809H463.5L463.457 112.769L414.516 77.4873H447.674L447.717 77.5279L513 112.809ZM463.672 112.404H511.409L447.588 77.8928H415.806L463.672 112.404Z" fill="#163663"/>
<path d="M379.718 77.6953L415.155 112.409H463.795L415.155 77.6953H379.718Z" fill="#FFC000"/>
<path d="M464.395 112.607H415.023L379.156 77.4873H415.152L415.195 77.5279L464.395 112.607ZM415.238 112.201H463.147L415.066 77.8928H380.188L415.238 112.201Z" fill="#163663"/>
<path d="M366.509 112.409L344.447 77.6953H379.712L415.149 112.409H366.509Z" fill="#FEFEFE"/>
<path d="M415.666 112.607H366.381L366.338 112.525L344.104 77.4873H379.799L415.666 112.607ZM366.639 112.201H414.634L379.627 77.8928H344.835L366.639 112.201Z" fill="#163663"/>
<path d="M317.815 112.54L310.719 77.623H344.608L366.455 112.54H317.815Z" fill="#FFC000"/>
<path d="M366.772 112.726H317.616L310.434 77.4043H344.666L344.709 77.4854L366.772 112.726ZM317.96 112.321H366.041L344.451 77.8098H310.95L317.96 112.321Z" fill="#163663"/>
<path d="M317.817 112.542L310.72 77.625H275.885L269.177 112.542H317.817Z" fill="#FEFEFE"/>
<path d="M318.046 112.726H268.89L275.642 77.4043H310.864L318.046 112.726ZM269.406 112.321H317.53L310.52 77.8098H276.029L269.406 112.321Z" fill="#163663"/>
<path d="M402.061 161.816H338.283V227.878H402.061V161.816Z" fill="#FEFEFE"/>
<path d="M402.247 228.061H338.039V161.594H402.247V228.061ZM338.469 227.655H401.817V161.999H338.469V227.655Z" fill="#163663"/>
<path d="M362.973 178.605C364.22 179.132 369.381 180.997 376.52 178.564C376.649 178.523 376.821 178.605 376.821 178.767V188.5C376.821 188.621 376.735 188.702 376.606 188.702H362.973C362.844 188.702 362.758 188.621 362.758 188.5L362.715 178.807C362.672 178.645 362.844 178.564 362.973 178.605Z" fill="#163663"/>
<path d="M376.573 188.889H362.94C362.725 188.889 362.51 188.727 362.51 188.484L362.424 178.792C362.424 178.67 362.51 178.508 362.639 178.467C362.768 178.386 362.897 178.386 363.026 178.427C364.402 179.035 369.434 180.738 376.401 178.386C376.53 178.345 376.659 178.345 376.788 178.427C376.917 178.508 376.96 178.629 376.96 178.751V188.484C377.003 188.727 376.788 188.889 376.573 188.889ZM362.854 178.792L362.897 188.484H376.53V178.751C369.434 181.184 364.273 179.4 362.854 178.792ZM362.94 178.589L362.854 178.792L362.94 178.589Z" fill="#163663"/>
<path d="M378.421 202.594C378.421 202.594 381.13 205.474 383.452 213.017H355.971C358.294 205.474 361.003 202.594 361.003 202.594V202.554L360.831 201.297L359.498 191.686L356.745 196.917L348.531 193.389L353.305 184.386C356.917 176.965 362.938 178.506 362.938 178.506C363.884 184.062 366.293 185.724 368.185 186.13C368.529 186.211 368.916 186.251 369.26 186.251H370.206C370.593 186.251 370.937 186.211 371.281 186.13C373.131 185.684 375.582 184.021 376.528 178.506C376.528 178.506 382.549 176.965 386.162 184.386L390.935 193.389L382.721 196.917L379.969 191.686L378.636 201.297L378.464 202.513L378.421 202.594Z" fill="#03CEA4"/>
<path d="M383.711 213.216H355.714L355.8 212.972C357.907 205.997 360.358 203.037 360.788 202.55L359.369 192.412L356.832 197.238L348.188 193.547L353.047 184.382C356.703 176.88 362.853 178.38 362.939 178.38L363.068 178.421L363.111 178.543C364.014 183.977 366.379 185.599 368.185 186.004C368.486 186.085 368.83 186.126 369.218 186.126H370.164C370.551 186.126 370.895 186.085 371.196 186.004C373.002 185.599 375.367 183.936 376.271 178.543L376.314 178.421L376.443 178.38C376.486 178.38 382.678 176.88 386.334 184.382L391.194 193.547L382.549 197.238L380.012 192.412L378.593 202.55C379.023 203.037 381.474 205.997 383.582 212.972L383.711 213.216ZM356.273 212.81H383.152C380.915 205.592 378.292 202.753 378.249 202.712L378.206 202.631V202.469L379.797 190.992L382.764 196.67L390.592 193.304L385.904 184.504C382.678 177.853 377.561 178.502 376.658 178.705C375.711 184.22 373.217 185.923 371.282 186.369C370.938 186.45 370.551 186.491 370.164 186.491H369.218C368.787 186.491 368.443 186.45 368.099 186.369C366.164 185.923 363.67 184.22 362.724 178.705C361.82 178.543 356.703 177.853 353.477 184.504L348.79 193.304L356.617 196.67L359.584 190.992L361.218 202.591L361.175 202.712C361.132 202.753 358.509 205.592 356.273 212.81Z" fill="#163663"/>
<path d="M378.617 201.31L378.445 202.526H366.661C366.575 203.337 366.403 204.676 366.36 205.284C366.36 205.405 366.317 205.487 366.231 205.527C366.145 205.608 366.059 205.649 365.93 205.649C365.715 205.649 365.5 205.487 365.5 205.243C365.457 204.189 365.543 202.688 365.543 202.688C364.855 203.743 364.468 206.622 364.339 207.636C364.339 207.758 364.296 207.839 364.21 207.879C364.124 207.96 364.038 208.001 363.909 208.001C363.694 208.001 363.479 207.839 363.479 207.636C363.221 204.148 364.296 202.567 364.296 202.567H360.985L360.813 201.31H378.617V201.31Z" fill="white"/>
<path d="M363.89 208.198C363.546 208.198 363.245 207.955 363.245 207.631C363.073 204.954 363.632 203.373 363.933 202.764H360.794L360.578 201.102H378.813L378.598 202.724H366.814C366.685 203.575 366.556 204.792 366.513 205.319C366.513 205.481 366.427 205.603 366.298 205.725C366.169 205.806 366.04 205.887 365.868 205.887C365.524 205.887 365.223 205.644 365.223 205.279C365.223 204.832 365.223 204.305 365.223 203.819C364.793 205.116 364.578 206.982 364.492 207.671C364.492 207.833 364.406 207.955 364.277 208.077C364.234 208.158 364.062 208.198 363.89 208.198ZM361.181 202.359H364.664L364.449 202.683C364.449 202.683 363.417 204.265 363.675 207.631C363.675 207.793 363.933 207.874 364.019 207.752C364.062 207.712 364.105 207.671 364.105 207.631C364.234 206.495 364.621 203.656 365.309 202.602L365.739 201.953L365.696 202.724C365.696 202.724 365.61 204.224 365.653 205.279C365.653 205.4 365.739 205.481 365.868 205.481C365.954 205.481 365.997 205.441 365.997 205.441C366.04 205.4 366.04 205.36 366.083 205.319C366.126 204.751 366.298 203.373 366.427 202.561L366.47 202.399H378.254L378.383 201.588H361.095L361.181 202.359Z" fill="#163663"/>
<path d="M317.986 141.176H254.208V239.761H317.986V141.176Z" fill="#FEFEFE"/>
<path d="M318.216 239.944H253.965V140.953H318.173V239.944H318.216ZM254.395 239.538H317.743V141.359H254.395V239.538Z" fill="#163663"/>
<path d="M309.505 248.226H254.199V250.659H309.505V248.226Z" fill="#FEFEFE"/>
<path d="M309.745 250.856H253.966V248.018H309.702V250.856H309.745ZM254.396 250.451H309.272V248.423H254.396V250.451Z" fill="#163663"/>
<path d="M309.512 253.793H254.206V256.226H309.512V253.793Z" fill="#FEFEFE"/>
<path d="M309.744 256.409H253.965V253.57H309.701V256.409H309.744ZM254.395 256.003H309.271V253.976H254.395V256.003Z" fill="#163663"/>
<path d="M278.426 152.204C279.458 152.651 285.694 154.921 293.091 152.204C293.177 152.164 293.263 152.245 293.263 152.286V162.911H278.297V152.286C278.254 152.245 278.34 152.204 278.426 152.204Z" fill="#163663"/>
<path d="M293.403 163.136H278.006V152.309C278.006 152.187 278.049 152.106 278.135 152.065C278.221 152.025 278.35 151.984 278.436 152.025C279.598 152.511 285.661 154.701 292.93 152.025C293.016 151.984 293.145 151.984 293.231 152.065C293.317 152.106 293.36 152.227 293.36 152.309V163.136H293.403ZM278.436 162.731H292.973V152.43C285.876 154.985 279.899 152.998 278.436 152.43V162.731Z" fill="#163663"/>
<path d="M295.337 178.669C295.337 178.669 304.497 188.321 304.411 218.452H267.125C267.039 188.321 276.199 178.669 276.199 178.669V178.628L276.027 177.249L274.565 166.665L271.555 172.424L262.48 168.53L267.727 158.635C271.684 150.484 278.35 152.147 278.35 152.147C279.382 158.23 282.048 160.095 284.112 160.541C284.499 160.623 284.886 160.663 285.317 160.663H286.349C286.736 160.663 287.166 160.623 287.553 160.541C289.617 160.055 292.284 158.23 293.316 152.147C293.316 152.147 299.939 150.444 303.938 158.635L309.185 168.53L300.111 172.424L297.1 166.665L295.638 177.249L295.466 178.588L295.337 178.669Z" fill="#6EBBC5"/>
<path d="M304.582 218.652H266.866V218.45C266.78 189.941 275.08 179.559 275.897 178.586L274.349 167.352L271.554 172.705L262.092 168.65L267.425 158.552C271.425 150.32 278.22 151.942 278.263 151.983L278.392 152.023L278.435 152.145C279.424 158.106 282.047 159.931 284.025 160.377C284.369 160.458 284.757 160.499 285.187 160.499H286.219C286.606 160.499 286.993 160.458 287.38 160.377C289.401 159.931 291.982 158.106 292.971 152.145L293.014 152.023L293.143 151.983C293.229 151.983 299.981 150.36 304.023 158.593L309.356 168.65L299.895 172.705L297.099 167.352L295.551 178.586C296.368 179.559 304.668 189.9 304.582 218.45V218.652ZM267.339 218.247H304.195C304.238 188.724 295.293 178.869 295.207 178.788L295.121 178.707L295.336 177.207L296.884 165.974L300.11 172.178L308.797 168.447L303.636 158.755C300.067 151.455 294.347 152.185 293.401 152.348C292.326 158.431 289.616 160.296 287.509 160.783C287.122 160.864 286.692 160.904 286.262 160.904H285.23C284.8 160.904 284.369 160.864 283.982 160.783C281.875 160.296 279.123 158.431 278.091 152.348C277.144 152.145 271.468 151.374 267.855 158.755L262.694 168.447L271.382 172.178L274.607 165.974L276.37 178.667L276.327 178.788C276.241 178.869 267.296 188.724 267.339 218.247Z" fill="#163663"/>
<path d="M295.538 177.259L295.366 178.598H282.421C282.292 179.49 282.163 180.95 282.077 181.639C282.077 181.761 281.991 181.842 281.905 181.923C281.819 182.004 281.69 182.045 281.604 182.045C281.346 182.045 281.131 181.842 281.131 181.599C281.088 180.422 281.174 178.76 281.174 178.76C280.399 179.936 279.969 183.058 279.883 184.194C279.883 184.316 279.797 184.397 279.711 184.478C279.625 184.559 279.496 184.6 279.41 184.6C279.152 184.6 278.937 184.437 278.937 184.194C278.679 180.382 279.84 178.598 279.84 178.598H276.228L276.056 177.219H295.538V177.259Z" fill="#FEFEFE"/>
<path d="M279.382 184.825C279.038 184.825 278.737 184.541 278.694 184.217C278.479 181.216 279.124 179.513 279.468 178.823H276.027L275.769 177.039H295.767L295.509 178.783H282.564C282.435 179.716 282.306 181.094 282.22 181.662C282.22 181.824 282.134 181.987 282.005 182.068C281.876 182.189 281.704 182.23 281.532 182.23C281.145 182.23 280.844 181.946 280.844 181.581C280.844 181.054 280.844 180.364 280.844 179.837C280.371 181.297 280.113 183.447 280.027 184.217C280.027 184.379 279.941 184.541 279.812 184.623C279.683 184.744 279.554 184.825 279.382 184.825ZM276.371 178.418H280.199L279.984 178.742C279.984 178.742 278.823 180.486 279.124 184.217C279.124 184.42 279.425 184.501 279.554 184.379C279.597 184.339 279.64 184.298 279.64 184.217C279.769 182.96 280.199 179.878 280.973 178.702L281.403 178.053L281.36 178.823C281.36 178.823 281.274 180.486 281.317 181.622C281.317 181.824 281.575 181.905 281.747 181.784C281.79 181.743 281.833 181.703 281.833 181.622C281.919 181.013 282.048 179.472 282.177 178.58L282.22 178.418H295.165L295.294 177.485H276.242L276.371 178.418Z" fill="#163663"/>
<path d="M288.488 222.896H267.415V224.803H288.488V222.896Z" fill="#31B8ED"/>
<path d="M288.677 224.985H267.174V222.674H288.677V224.985ZM267.604 224.58H288.247V223.079H267.604V224.58Z" fill="#163663"/>
<path d="M305.262 226.957H267.416V228.863H305.262V226.957Z" fill="#31B8ED"/>
<path d="M305.45 229.039H267.175V226.728H305.45V229.039ZM267.605 228.634H305.02V227.133H267.605V228.634Z" fill="#163663"/>
<path d="M269.719 231.883L270.493 233.343L272.213 233.586L270.966 234.762L271.267 236.384L269.719 235.614L268.171 236.384L268.472 234.762L267.182 233.586L268.945 233.343L269.719 231.883Z" fill="#6EBBC5"/>
<path d="M267.864 236.75L268.208 234.804L266.703 233.425L268.767 233.141L269.67 231.397L270.574 233.141L272.638 233.425L271.133 234.804L271.477 236.75L269.627 235.858L267.864 236.75ZM269.713 235.372L270.961 235.98L270.703 234.642L271.735 233.709L270.316 233.506L269.67 232.29L269.025 233.506L267.606 233.709L268.638 234.642L268.38 235.98L269.713 235.372Z" fill="#163663"/>
<path d="M277.746 231.883L278.521 233.343L280.241 233.586L278.994 234.762L279.295 236.384L277.746 235.614L276.198 236.384L276.499 234.762L275.209 233.586L276.972 233.343L277.746 231.883Z" fill="#6EBBC5"/>
<path d="M279.604 236.75L277.755 235.858L275.905 236.75L276.249 234.804L274.744 233.425L276.808 233.141L277.712 231.397L278.615 233.141L280.679 233.425L279.174 234.804L279.604 236.75ZM277.755 235.372L279.002 235.98L278.744 234.642L279.776 233.709L278.357 233.506L277.712 232.29L277.066 233.506L275.647 233.709L276.679 234.642L276.421 235.98L277.755 235.372Z" fill="#163663"/>
<path d="M286.099 231.883L286.873 233.343L288.637 233.586L287.389 234.762L287.648 236.384L286.099 235.614L284.551 236.384L284.852 234.762L283.605 233.586L285.325 233.343L286.099 231.883Z" fill="#6EBBC5"/>
<path d="M284.293 236.75L284.637 234.804L283.132 233.425L285.196 233.141L286.1 231.397L287.003 233.141L289.067 233.425L287.562 234.804L287.906 236.75L286.057 235.858L284.293 236.75ZM286.1 235.372L287.347 235.98L287.089 234.642L288.121 233.709L286.702 233.506L286.057 232.29L285.411 233.506L283.992 233.709L285.024 234.642L284.766 235.98L286.1 235.372Z" fill="#163663"/>
<path d="M294.481 231.883L295.255 233.343L296.976 233.586L295.728 234.762L296.029 236.384L294.481 235.614L292.933 236.384L293.234 234.762L291.944 233.586L293.707 233.343L294.481 231.883Z" fill="#6EBBC5"/>
<path d="M296.334 236.75L294.485 235.858L292.635 236.75L292.979 234.804L291.474 233.425L293.539 233.141L294.442 231.397L295.345 233.141L297.409 233.425L295.904 234.804L296.334 236.75ZM294.485 235.372L295.732 235.98L295.474 234.642L296.506 233.709L295.087 233.506L294.442 232.29L293.797 233.506L292.377 233.709L293.409 234.642L293.151 235.98L294.485 235.372Z" fill="#163663"/>
<path d="M302.741 231.883L303.515 233.343L305.235 233.586L303.988 234.762L304.289 236.384L302.741 235.614L301.193 236.384L301.494 234.762L300.204 233.586L301.967 233.343L302.741 231.883Z" fill="#6EBBC5"/>
<path d="M304.59 236.75L302.741 235.858L300.892 236.75L301.236 234.804L299.731 233.425L301.795 233.141L302.698 231.397L303.601 233.141L305.665 233.425L304.16 234.804L304.59 236.75ZM302.741 235.372L303.988 235.98L303.73 234.642L304.762 233.709L303.343 233.506L302.698 232.29L302.053 233.506L300.634 233.709L301.666 234.642L301.408 235.98L302.741 235.372Z" fill="#163663"/>
<path d="M233.824 161.776H170.046V227.838H233.824V161.776Z" fill="#FEFEFE"/>
<path d="M234.01 228.013H169.802V161.546H234.01V228.013V228.013ZM170.232 227.607H233.58V161.951H170.232V227.607Z" fill="#163663"/>
<path d="M215.277 179.091H212.567V179.051H187.753L176.055 184.444L179.409 193.407L187.71 190.244L198.418 190.122L215.32 190.284L223.62 193.488L226.974 184.525L215.277 179.091Z" fill="#163663"/>
<path d="M223.732 193.714L215.26 190.47L198.401 190.308L187.736 190.429L179.263 193.674L175.737 184.346L187.693 178.831H212.765V178.872H215.26L227.215 184.387L223.732 193.714ZM198.401 189.902L215.346 190.064L223.474 193.187L226.699 184.59L215.174 179.277H212.335V179.237H187.822L176.296 184.549L179.521 193.146L187.693 190.024L198.401 189.902Z" fill="#163663"/>
<path d="M215.289 179.053V213.685H187.722V179.053H193.485C193.829 182.946 197.27 185.987 201.484 185.987C205.699 185.987 209.139 182.946 209.483 179.053H215.289Z" fill="#31B8ED"/>
<path d="M215.476 213.869H187.479V178.831H193.672V179.034C194.016 182.805 197.457 185.766 201.456 185.766C205.456 185.766 208.896 182.805 209.24 179.034V178.831H215.433V213.869H215.476ZM187.909 213.464H215.046V179.237H209.67C209.197 183.13 205.628 186.171 201.456 186.171C197.285 186.171 193.715 183.13 193.242 179.237H187.866V213.464H187.909Z" fill="#163663"/>
<path d="M211.331 179.053C211.116 183.96 206.815 187.893 201.525 187.893C196.235 187.893 191.935 183.96 191.72 179.053H193.526C193.87 182.946 197.311 185.987 201.525 185.987C205.74 185.987 209.18 182.946 209.524 179.053H211.331Z" fill="white"/>
<path d="M201.497 188.077C196.121 188.077 191.735 184.103 191.477 179.034V178.831H193.713V179.034C194.057 182.805 197.498 185.766 201.497 185.766C205.497 185.766 208.937 182.805 209.281 179.034V178.831H211.518V179.034C211.26 184.103 206.873 188.077 201.497 188.077ZM191.907 179.237C192.251 183.981 196.423 187.672 201.497 187.672C206.572 187.672 210.744 183.981 211.088 179.237H209.711C209.238 183.13 205.669 186.171 201.497 186.171C197.326 186.171 193.756 183.13 193.283 179.237H191.907Z" fill="#163663"/>
<path d="M215.283 201.232H187.716V203.868H215.283V201.232Z" fill="white"/>
<path d="M215.479 204.064H187.482V201.022H215.479V204.064ZM187.912 203.658H215.049V201.428H187.912V203.658Z" fill="#163663"/>
<path d="M215.287 206.876H187.72V209.512H215.287V206.876Z" fill="white"/>
<path d="M215.476 209.738H187.479V206.696H215.476V209.738ZM187.909 209.332H215.046V207.102H187.909V209.332Z" fill="#163663"/>
</svg>
