<svg width="102" height="102" viewBox="0 0 102 102" fill="none" xmlns="http://www.w3.org/2000/svg">
<g clip-path="url(#clip0_4373_53479)">
<path d="M55.3894 80.6112L51.0371 84.9636C49.8342 86.1665 47.8874 86.1665 46.6848 84.9636C45.4819 83.7607 45.4819 81.8139 46.6848 80.6112L51.0371 76.2589C52.2378 75.0582 52.2378 73.1073 51.0371 71.9066L47.0354 67.9049C45.8325 66.702 45.8325 64.7552 47.0354 63.5526C48.2383 62.3497 50.185 62.3497 51.3877 63.5526L55.3894 67.5543C58.9897 71.1541 58.9897 77.011 55.3894 80.6112Z" fill="#6EBBC5" fill-opacity="0.24"/>
<path d="M61.918 100.198C59.5142 102.602 55.6169 102.602 53.2134 100.198L31.4513 78.4363L40.156 69.7314L61.918 91.4935C64.322 93.8973 64.322 97.7946 61.918 100.198Z" fill="#6EBBC5" fill-opacity="0.24"/>
<path d="M31.2775 52.1455L44.7702 65.6382L44.509 74.0819L29.2755 89.3153C25.6631 92.9277 19.7437 92.8409 16.1313 89.2281L7.42639 80.5232C3.85739 76.9542 3.90082 71.1655 7.51365 67.5531L22.7471 52.3196L31.2775 52.1455Z" fill="#6EBBC5" fill-opacity="0.24"/>
<path d="M37.9804 58.8486L44.7702 65.6384L44.509 74.0821L29.2756 89.3156C25.6631 92.928 19.7438 92.8411 16.1313 89.2283L11.8658 84.9628L37.9804 58.8486Z" fill="#6EBBC5" fill-opacity="0.24"/>
<path d="M69.5263 12.3113C67.8283 12.3133 66.4491 10.9341 66.4491 9.23419L66.4471 3.07753C66.4467 1.3772 67.8239 2.15551e-06 69.5243 2.15551e-06C71.2222 -0.00199003 72.6014 1.3772 72.6014 3.07714L72.6034 9.23379C72.6036 10.9341 71.2266 12.3113 69.5263 12.3113Z" fill="#6EBBC5" fill-opacity="0.24"/>
<path d="M94.1461 30.7773L87.9895 30.7753C86.2894 30.7753 84.91 29.3962 84.9124 27.6982C84.9124 25.9981 86.2895 24.6211 87.9895 24.6211L94.1461 24.6231C95.8462 24.6231 97.2256 26.0023 97.2232 27.7002C97.2232 29.4001 95.8462 30.7773 94.1461 30.7773Z" fill="#6EBBC5" fill-opacity="0.24"/>
<path d="M90.2091 6.62017C91.4277 7.83879 91.4279 9.75388 90.2091 10.9725L83.6805 17.5011C82.4617 18.7199 80.5466 18.7197 79.3282 17.5011C78.1094 16.2823 78.1094 14.3674 79.3282 13.1488L85.8568 6.62017C87.0754 5.40135 88.9903 5.40135 90.2091 6.62017Z" fill="#6EBBC5" fill-opacity="0.24"/>
<path d="M53.2137 13.1491L83.6806 43.616C84.5512 44.4866 85.6392 53.67 86.7707 53.8443L78.1967 55.6289C65.4876 58.1532 53.4315 65.1607 45.2489 73.3432L44.509 74.0831L22.7466 52.3209L23.4865 51.581C32.1045 42.963 38.4588 31.5595 41.0701 18.5025L42.8545 9.58008L53.2137 13.1491Z" fill="#6EBBC5" fill-opacity="0.24"/>
<path d="M29.2748 67.5526C30.4934 68.7712 30.4936 70.6863 29.2748 71.9049L24.9225 76.2575C23.7036 77.4763 21.7885 77.4761 20.5701 76.2575C19.3513 75.0386 19.3513 73.1238 20.5701 71.9051L24.9225 67.5528C26.1413 66.334 28.0562 66.334 29.2748 67.5526Z" fill="#E1E4FB" fill-opacity="0.24"/>
<path d="M68.4467 28.3828L83.6801 43.6163C84.5507 44.4869 85.6387 53.6702 86.7702 53.8446L78.1963 55.6292C65.4871 58.1535 53.431 65.161 45.2485 73.3435L44.5086 74.0834L33.6274 63.2023L68.4467 28.3828Z" fill="#6EBBC5" fill-opacity="0.24"/>
<path d="M29.2744 67.5537C30.493 68.7723 30.4932 70.6874 29.2744 71.906L24.922 76.2586C23.7032 77.4774 21.7881 77.4772 20.5697 76.2586L29.2744 67.5537Z" fill="#6EBBC5" fill-opacity="0.24"/>
<path d="M53.2128 4.44382L92.3846 43.6156C94.7784 46.0094 94.7784 49.9267 92.3846 52.3205C92.1234 52.5816 91.7752 52.7556 91.4268 52.9297C90.034 53.8875 88.3803 54.2356 86.7696 53.8437C85.6382 53.6698 84.5501 53.191 83.6795 52.3205L44.5077 13.1485C43.5065 12.1472 43.0279 10.8852 42.8536 9.57948C42.6797 8.2738 42.9411 6.96772 43.5937 5.79293C43.8983 5.31401 44.1159 4.83549 44.5077 4.44362C46.9015 2.05001 50.819 2.05001 53.2128 4.44382Z" fill="#6EBBC5" fill-opacity="0.24"/>
<path d="M72.7993 24.0293L92.3851 43.6151C94.7789 46.0089 94.7789 49.9261 92.3851 52.3199C92.1239 52.5811 91.7757 52.755 91.4273 52.9291C90.0345 53.887 88.3808 54.235 86.7701 53.8432C85.6388 53.6692 84.5506 53.1905 83.68 52.3199L64.0942 32.7342L72.7993 24.0293Z" fill="#6EBBC5" fill-opacity="0.24"/>
</g>
<defs>
<clipPath id="clip0_4373_53479">
<rect width="102" height="102" fill="white"/>
</clipPath>
</defs>
</svg>
