<svg width="102" height="102" viewBox="0 0 102 102" fill="none" xmlns="http://www.w3.org/2000/svg">
<g clip-path="url(#clip0_4373_53505)">
<path d="M7.46313 45.9209H94.5363V108.116H7.46313V45.9209Z" fill="#D0E2E7" fill-opacity="0.24"/>
<path d="M7.46313 45.9209V57.9454C10.1777 57.9454 12.6878 57.0553 14.7193 55.5531C16.7507 57.0553 19.2607 57.9454 21.9754 57.9454C24.6902 57.9454 27.2001 57.0553 29.2316 55.5531C31.263 57.0553 33.773 57.9454 36.4877 57.9454C39.2023 57.9454 41.7124 57.0553 43.7439 55.5531C45.7753 57.0553 48.2853 57.9454 51 57.9454C53.7148 57.9454 56.2247 57.0553 58.2562 55.5531C60.2876 57.0553 62.7975 57.9454 65.5123 57.9454C68.227 57.9454 70.737 57.0553 72.7684 55.5531C74.7999 57.0553 77.3098 57.9454 80.0246 57.9454C82.7391 57.9454 85.2493 57.0553 87.2807 55.5531C89.3122 57.0553 91.8221 57.9454 94.5369 57.9454V45.9209H7.46313Z" fill="#6EBBC5" fill-opacity="0.24"/>
<path d="M43.7429 41.7734V45.7124C43.7429 49.7199 46.9916 52.9685 50.9991 52.9685C55.0066 52.9685 58.2552 49.7199 58.2552 45.7124V41.7734H43.7429Z" fill="#6EBBC5" fill-opacity="0.24"/>
<path d="M55.9748 12.75H46.0234L43.7429 41.7744H58.2552L55.9748 12.75Z" fill="#6EBBC5" fill-opacity="0.24"/>
<path d="M29.2301 41.7734V45.7124C29.2301 49.7199 25.9814 52.9685 21.9739 52.9685C17.9664 52.9685 14.7178 49.7199 14.7178 45.7124V41.7734H29.2301Z" fill="#6EBBC5" fill-opacity="0.24"/>
<path d="M43.743 41.7734V45.7124C43.743 49.7199 40.4943 52.9685 36.4869 52.9685C32.4794 52.9685 29.2307 49.7199 29.2307 45.7124V41.7734H43.743Z" fill="#6EBBC5" fill-opacity="0.24"/>
<path d="M35.6578 12.75H46.0235L43.743 41.7744H29.231L35.6578 12.75Z" fill="#6EBBC5" fill-opacity="0.24"/>
<path d="M25.2909 12.75H35.6568L29.23 41.7744H14.7178L25.2909 12.75Z" fill="#6EBBC5" fill-opacity="0.24"/>
<path d="M72.7671 41.7734V45.7124C72.7671 49.7199 76.0158 52.9685 80.0232 52.9685C84.0307 52.9685 87.2794 49.7199 87.2794 45.7124V41.7734H72.7671Z" fill="#6EBBC5" fill-opacity="0.24"/>
<path d="M58.2546 41.7734V45.7124C58.2546 49.7199 61.5033 52.9685 65.5108 52.9685C69.5183 52.9685 72.7669 49.7199 72.7669 45.7124V41.7734H58.2546Z" fill="#6EBBC5" fill-opacity="0.24"/>
<path d="M17.4722 12.75C15.9102 12.75 14.4808 13.6278 13.7743 15.0209L0.872324 40.4615C0.659758 40.8805 0.497793 41.3213 0.38623 41.7744H14.7188L25.2918 12.75H17.4722Z" fill="#6EBBC5" fill-opacity="0.24"/>
<path d="M66.3404 12.75H55.9746L58.2551 41.7744H72.7672L66.3404 12.75Z" fill="#6EBBC5" fill-opacity="0.24"/>
<path d="M76.706 12.75H66.3401L72.7669 41.7744H87.2792L76.706 12.75Z" fill="#6EBBC5" fill-opacity="0.24"/>
<path d="M14.0979 66.6315V108.116H38.9759V66.6315C38.9759 65.4979 38.0571 64.5791 36.9236 64.5791H16.1503C15.0169 64.5793 14.0979 65.4981 14.0979 66.6315Z" fill="#6EBBC5" fill-opacity="0.24"/>
<path d="M45.6089 66.6315V93.6035H87.9016V66.6315C87.9016 65.4979 86.9828 64.5791 85.8493 64.5791H47.6612C46.5277 64.5793 45.6089 65.4981 45.6089 66.6315Z" fill="#6EBBC5" fill-opacity="0.24"/>
<path d="M82.9272 64.5793V93.6037H87.9029V66.6315C87.9029 65.4979 86.9841 64.5791 85.8506 64.5791H82.9272V64.5793Z" fill="#6EBBC5" fill-opacity="0.24"/>
<path d="M45.6089 93.6045V98.1863C45.6089 99.3199 46.5277 100.239 47.6612 100.239H85.8493C86.9828 100.239 87.9016 99.3199 87.9016 98.1863V93.6045H45.6089Z" fill="#6EBBC5" fill-opacity="0.24"/>
<path d="M82.9272 93.6045V100.239H85.8506C86.9841 100.239 87.9029 99.3199 87.9029 98.1863V93.6045H82.9272Z" fill="#6EBBC5" fill-opacity="0.24"/>
<path d="M68.5882 73.791L67.0668 75.5658H63.1278C59.6929 75.5658 56.9082 78.3503 56.9082 81.7854V83.4648C56.9082 84.5984 57.827 85.5172 58.9606 85.5172H74.551C75.6846 85.5172 76.6034 84.5984 76.6034 83.4648V76.9404C76.6034 76.1087 76.1015 75.3594 75.3326 75.0427L70.9278 73.229C70.1084 72.8915 69.1649 73.118 68.5882 73.791Z" fill="#6EBBC5" fill-opacity="0.24"/>
<path d="M32.3417 91.2031C31.4916 91.2031 30.8025 90.514 30.8025 89.6639V81.3712C30.8025 80.5209 31.4916 79.832 32.3417 79.832C33.1917 79.832 33.8808 80.5211 33.8808 81.3712V89.6639C33.8808 90.514 33.1917 91.2031 32.3417 91.2031Z" fill="#6EBBC5" fill-opacity="0.24"/>
<path d="M0.207275 43.2455V45.5692C0.207275 49.6378 3.53702 53.045 7.60487 52.9671C11.547 52.8916 14.7194 49.6725 14.7194 45.7124V41.7734H0.386772C0.268635 42.2536 0.207275 42.7476 0.207275 43.2455Z" fill="#6EBBC5" fill-opacity="0.24"/>
<path d="M84.5268 12.75C86.0889 12.75 87.5183 13.6278 88.2247 15.0209L101.127 40.4615C101.339 40.8805 101.501 41.3213 101.613 41.7744H87.2802L76.7073 12.75H84.5268Z" fill="#6EBBC5" fill-opacity="0.24"/>
<path d="M101.792 43.2455V45.5692C101.792 49.6378 98.4626 53.045 94.3948 52.9671C90.4526 52.8916 87.2803 49.6725 87.2803 45.7124V41.7734H101.613C101.731 42.2536 101.792 42.7476 101.792 43.2455Z" fill="#6EBBC5" fill-opacity="0.24"/>
</g>
<defs>
<clipPath id="clip0_4373_53505">
<rect width="102" height="102" fill="white"/>
</clipPath>
</defs>
</svg>
