<svg width="102" height="102" viewBox="0 0 102 102" fill="none" xmlns="http://www.w3.org/2000/svg">
<path d="M102 83.0075C102 84.6571 100.661 85.9958 99.0115 85.9958H19.9177C16.8936 85.9958 14.3316 83.7327 13.9571 80.7324L13.1084 73.955C12.6628 70.3936 15.4337 67.2182 19.0471 67.2015C34.5993 67.1216 31.4339 67.1357 31.8748 67.1357C33.5184 67.1357 34.8551 68.4625 34.8631 70.1081C34.8711 71.7596 33.5403 73.1043 31.8908 73.1123C18.5638 73.1806 19.0515 73.1649 19.0392 73.202C19.9472 80.4838 19.8753 80.0192 19.9177 80.0192H99.0115C100.661 80.0192 102 81.356 102 83.0075Z" fill="#6EBBC5" fill-opacity="0.24"/>
<path d="M102 83.0088C102 84.6583 100.661 85.9971 99.0117 85.9971H60.5625V80.0205H99.0117C100.661 80.0205 102 81.3573 102 83.0088Z" fill="#6EBBC5" fill-opacity="0.24"/>
<path d="M34.9962 80.0176C28.9361 80.0176 24.0059 84.9478 24.0059 91.0079C24.0059 97.0679 28.9361 101.998 34.9962 101.998C41.0562 101.998 45.9863 97.0677 45.9863 91.0077C45.9863 84.9476 41.0562 80.0176 34.9962 80.0176Z" fill="#6EBBC5" fill-opacity="0.24"/>
<path d="M83.0079 80.0176C76.9478 80.0176 72.0176 84.9478 72.0176 91.0079C72.0176 97.0679 76.9478 101.998 83.0079 101.998C89.0679 101.998 93.998 97.0677 93.998 91.0077C93.998 84.9476 89.0679 80.0176 83.0079 80.0176Z" fill="#6EBBC5" fill-opacity="0.24"/>
<path d="M22.1896 21.981C20.7727 21.981 19.5149 20.9694 19.2527 19.526L16.8184 6.1198C16.778 5.89708 17.4502 5.97656 2.98828 5.97656C1.33795 5.97656 0 4.63861 0 2.98828C0 1.33795 1.33795 0 2.98828 0H16.6469C19.6223 0 22.1675 2.12487 22.6988 5.05219L25.133 18.4584C25.4651 20.2866 24.0624 21.981 22.1896 21.981Z" fill="#6EBBC5" fill-opacity="0.24"/>
<path d="M94.6841 16.1284C91.205 16.1225 25.7516 16.0091 22.1986 16.0029C20.3456 16.0029 18.9597 17.6527 19.2408 19.4526L27.2434 70.6658C27.4707 72.1203 28.7236 73.1927 30.1958 73.1927H92.4019C97.7601 73.1927 101.801 69.1332 101.801 63.7497V23.2585C101.801 19.3339 98.6087 16.1354 94.6841 16.1284Z" fill="#6EBBC5" fill-opacity="0.24"/>
<path d="M102 23.2582V63.7494C102 69.1323 97.9519 73.1923 92.5849 73.1923H60.5625V16.0684C93.7685 16.1251 59.9101 16.0698 94.872 16.1281C98.8025 16.1341 102 19.3336 102 23.2582Z" fill="#6EBBC5" fill-opacity="0.24"/>
<path d="M78.124 36.5845L66.3083 48.4082C63.1485 51.5678 58.0296 51.5745 54.8632 48.4082L43.0475 36.5845C40.2136 33.7463 42.2255 28.8867 46.239 28.8867H51.2254V9.75973C51.2254 6.24551 54.0862 3.38672 57.5984 3.38672H63.571C67.0852 3.38672 69.946 6.24551 69.946 9.76172V28.8867H74.9345C78.9447 28.8867 80.9582 33.7459 78.124 36.5845Z" fill="#6EBBC5" fill-opacity="0.24"/>
<path d="M78.124 36.5845L66.3083 48.4082C64.7803 49.9362 62.7483 50.7789 60.5868 50.7789C60.5495 50.7789 60.5629 53.0298 60.5629 3.38672H63.5711C67.0853 3.38672 69.9461 6.24551 69.9461 9.76172V28.8867H74.9345C78.9448 28.8867 80.9583 33.7459 78.124 36.5845Z" fill="#6EBBC5" fill-opacity="0.24"/>
</svg>
